<?xml version="1.0" standalone="no"?>
<!DOCTYPE svg PUBLIC "-//W3C//DTD SVG 1.1//EN" "http://www.w3.org/Graphics/SVG/1.1/DTD/svg11.dtd" >
<!--
2013-9-30: Created.
-->
<svg>
<metadata>
Created by iconfont
</metadata>
<defs>

<font id="iconfont" horiz-adv-x="1024" >
  <font-face
    font-family="iconfont"
    font-weight="500"
    font-stretch="normal"
    units-per-em="1024"
    ascent="896"
    descent="-128"
  />
    <missing-glyph />
    
    <glyph glyph-name="-play" unicode="&#59174;" d="M713.896 502.85l-240 158.691c-80.996 54.004-150 17.987-150-80.996v-360c0-98.73 65.703-134.707 150-80.703l240 158.711c80.724 60 80.724 150 0 203.984v0.313z"  horiz-adv-x="1024" />

    
    <glyph glyph-name="-download-s" unicode="&#58895;" d="M0 237.514585h431.951717l190.335393-154.063514 138.980888 154.063514h419.885616v-365.514585H0zM453.288116 896h311.143555v-377.580687h220.721368L607.572352 161.95430399999998 220.942089 518.419313h244.706424z"  horiz-adv-x="1181" />

    
    <glyph glyph-name="-wechat" unicode="&#59225;" d="M331.446857 632.576c0 31.414857-20.553143 52.004571-52.004571 52.004571-30.866286 0-62.281143-20.553143-62.281143-52.004571 0-30.866286 31.414857-51.419429 62.281143-51.419429 31.414857 0 52.004571 20.553143 52.004571 51.419429z m424.557714-289.718857c0 20.553143-20.553143 41.142857-52.004571 41.142857-20.553143 0-41.142857-20.553143-41.142857-41.142857 0-21.138286 20.553143-41.728 41.142857-41.728 31.414857 0 52.004571 20.553143 52.004571 41.728z m-134.875428 289.718857c0 31.414857-20.553143 52.004571-51.419429 52.004571-31.414857 0-62.281143-20.553143-62.281143-52.004571 0-30.866286 30.866286-51.419429 62.281143-51.419429 30.866286 0 51.419429 20.553143 51.419429 51.419429z m362.861714-289.718857c0 20.553143-21.138286 41.142857-52.004571 41.142857-20.553143 0-41.142857-20.553143-41.142857-41.142857 0-21.138286 20.553143-41.728 41.142857-41.728 30.866286 0 52.004571 20.553143 52.004571 41.728zM832 569.7097140000001a306.285714 306.285714 0 0 1-40.009143 2.304c-196.571429 0-352-146.870857-352-327.424 0-30.281143 4.571429-59.428571 13.129143-86.857143-13.129143-1.133714-25.709714-1.718857-38.838857-1.718857-52.004571 0-93.147429 10.276571-145.152 20.553143l-144.566857-72.557714 41.142857 124.562286C62.281143 301.129143 0 394.861714 0 508.562286 0 705.7188570000001 186.294857 860.562286 414.281143 860.562286c203.446857 0 382.281143-124.013714 417.718857-290.852572zM1170.285714 249.16114300000004c0-93.147429-61.696-176.018286-145.152-238.299429l31.414857-103.424-113.700571 62.281143c-41.728-10.276571-83.419429-21.138286-124.562286-21.138286-197.156571 0-352 134.838857-352 300.580572s154.843429 300.580571 352 300.580571c186.294857 0 352-134.838857 352-300.580571z"  horiz-adv-x="1170" />

    
    <glyph glyph-name="-location" unicode="&#58944;" d="M698.981453 714.672897c-136.411491 141.543848-357.561468 141.543848-493.972959 0-136.411491-141.565687-136.411491-371.102154 0-512.646002l246.98648-254.870653 246.986479 254.870653c136.411491 141.543848 136.411491 371.080314 0 512.646002zM451.994974 362.156426a109.17724 109.17724 0 0 0-109.155401 109.22092 109.19908 109.19908 0 0 0 109.155401 109.22092 109.19908 109.19908 0 0 0 109.1554-109.22092 109.19908 109.19908 0 0 0-109.1554-109.22092z"  horiz-adv-x="1024" />

    
    <glyph glyph-name="-album" unicode="&#59509;" d="M140.580571 473.417143c0 109.604571 58.093714 166.912 168.484572 166.912H830.354286v9.691428c0 79.780571-40.667429 120.064-121.234286 120.064H121.6C40.685714 770.084571 0 729.782857 0 650.002286v-407.826286c0-79.780571 40.667429-119.661714 121.6-119.661714h18.980571z m174.683429-537.563429h587.117714c80.566857 0 121.618286 40.283429 121.618286 120.064V467.602286c0 79.396571-41.051429 119.68-121.6 119.68H315.245714c-81.316571 0-121.6-39.899429-121.6-119.68v-411.684572c0-79.798857 40.283429-120.064 121.6-120.064z m148.315429 329.965715a89.910857 89.910857 0 0 0-89.837715 89.856c0 49.188571 40.265143 89.856 89.837715 89.856 49.188571 0 89.472-40.667429 89.472-89.856 0-49.572571-40.283429-89.856-89.472-89.856z m-152.978286-267.611429c-34.852571 0-54.601143 19.748571-54.601143 54.985143v31.762286l67.382857 61.586285c34.468571 30.976 54.235429 52.278857 81.334857 52.278857 27.885714 0 50.358857-22.070857 85.577143-52.662857l36.425143-32.548571 127.030857 114.249143c42.203429 38.345143 70.491429 64.292571 104.173714 64.292571 34.084571 0 63.140571-25.161143 104.576-64.274286l99.145143-94.116571v-80.566857c0-35.236571-20.150857-54.985143-55.003428-54.985143z"  horiz-adv-x="1024" />

    
    <glyph glyph-name="-sequence" unicode="&#58881;" d="M242.949068 896L37.051183 596.5233519999999H189.246127v-622.716104c0-29.706647 24.110525-53.70294 53.702941-53.702941 29.706647 0 53.699174 24.110525 53.699174 53.702941V596.5233519999999h152.194944L242.949068 896z m577.123649-724.523352V794.194007c0 29.710413-24.105504 53.70294-53.697919 53.702941-29.710413 0-53.70294-24.110525-53.70294-53.702941v-622.717359H560.363937l205.894118-299.476648 205.897885 299.476648H820.072717z m0 0"  horiz-adv-x="1024" />

    
    <glyph glyph-name="-yingyu" unicode="&#58943;" d="M272 256h224c8.836 0 16 7.163 16 16s-7.164 16-16 16H288V432h208c8.836 0 16 7.164 16 16s-7.164 16-16 16H288V608h208c8.836 0 16 7.164 16 16s-7.164 16-16 16H272c-8.836 0-16-7.164-16-16v-352c0-8.837 7.164-16 16-16zM864 800H160c-35.346 0-64-28.654-64-64v-704c0-35.347 28.654-64 64-64h704c35.346 0 64 28.653 64 64V736c0 35.346-28.654 64-64 64z m32-768c0-17.673-14.327-32-32-32H160c-17.673 0-32 14.327-32 32V736c0 17.673 14.327 32 32 32h704c17.673 0 32-14.327 32-32v-704zM672 512c-24.589 0-47.016-9.249-64-24.452V496c0 8.836-7.163 16-16 16s-16-7.164-16-16v-224c0-8.837 7.163-16 16-16s16 7.163 16 16V416h-0.003c0 35.348 28.655 64.003 64.003 64.003s64.003-28.655 64.003-64.003H736v-144c0-8.837 7.163-16 16-16s16 7.163 16 16V416c0 53.02-42.98 96-96 96z m80-352H272c-8.836 0-16-7.163-16-16s7.164-16 16-16h480c8.837 0 16 7.163 16 16s-7.163 16-16 16z"  horiz-adv-x="1024" />

    
    <glyph glyph-name="-lanqiu" unicode="&#60019;" d="M588.736 760.96c20.864-58.56 35.456-128.192 42.816-204.352 60.672-2.24 118.016-9.152 171.904-20.736 2.368 15.488 5.888 29.056 9.728 40.512 11.328 34.048 29.824 63.68 53.568 85.76 16.128 14.976 33.92 25.856 52.48 32.192a513.795 513.795 0 0 1-45.184 51.648c-47.04 47.04-101.76 83.904-162.752 109.696C648.64 882.24 582.144 895.808 513.536 896c30.016-33.792 55.232-78.976 75.2-135.04zM953.6 637.568c-32.384-2.624-65.472-35.968-80.448-81.024-3.328-9.984-6.336-22.144-8.064-36.224 55.616-16.448 107.008-38.4 154.112-65.728a505.252 505.252 0 0 1-35.456 128.704 529.91 529.91 0 0 1-27.072 54.72c-0.96-0.192-1.984-0.32-3.072-0.448z m-686.848 45.248c49.024-27.264 83.968-70.016 101.12-123.712a247.214 247.214 0 0 0 4.928-17.92c53.952 7.808 106.24 12.864 156.608 15.104 12.992 0.512 25.856 0.896 38.592 1.024-7.04 68.224-20.224 130.304-38.784 182.4-25.344 71.104-60.288 121.92-100.992 146.88-1.088 0.64-2.048 1.344-3.008 2.112-38.528-6.592-76.16-17.6-112.512-32.96-60.992-25.792-115.712-62.72-162.752-109.696a510.136 510.136 0 0 1-27.136-29.376c55.168-0.064 103.488-11.392 143.936-33.856z m756.544-305.408c-48.192 32.896-100.544 57.856-155.776 76.032 2.368-13.12 6.016-27.008 11.136-41.728 20.992-59.968 62.528-119.232 123.456-176.32C1016 281.08799999999997 1023.36 328.51199999999994 1024 376.96000000000004a4.305 4.305 0 0 0-0.704 0.448zM573.312 479.936c-0.192 4.8-0.384 9.6-0.576 14.336-64.064-0.768-128.896-6.592-193.024-16-0.128-13.44-1.152-27.136-3.136-41.152-6.08-43.2-20.864-86.848-43.84-129.856-48.192-90.048-128.064-169.152-231.36-229.184 14.784-19.776 30.976-38.528 48.64-56.128 47.04-47.04 101.76-83.904 162.752-109.696 43.84-18.56 89.6-30.72 136.64-36.48 84.864 168.064 131.2 393.92 123.904 604.16z m-263.104 51.008c-0.768 3.008-1.6 6.016-2.56 8.96-26.496 83.008-108.544 123.648-225.216 111.424-2.432-0.256-4.8-0.256-7.168 0.064a506.091 506.091 0 0 1-35.008-68.096C22.528 541.312 10.56 497.664 4.544 452.8c106.496 34.496 208.64 60.608 305.664 78.144z m665.536-356.928c-77.632 68.608-130.368 141.632-156.672 216.832-10.24 29.376-15.616 56.448-17.6 80.96-53.504 12.224-108.992 19.072-165.44 21.504 0.128-3.712 0.32-7.424 0.448-11.136 3.648-104.96-5.504-216.704-26.56-323.328-20.672-104.704-51.648-201.024-92.096-286.848 67.072 0.768 132.16 14.272 193.536 40.192 60.992 25.792 115.712 62.72 162.752 109.696 43.712 43.712 78.72 94.208 104.128 150.08-0.896 0.64-1.728 1.28-2.496 2.048zM276.992 337.08799999999997c23.488 43.904 36.736 88.96 39.04 130.688-108.224-19.904-212.864-48.896-306.56-79.872a32.668 32.668 0 0 0-9.472-1.6V384c0-69.12 13.568-136.192 40.256-199.296 7.808-18.432 16.64-36.352 26.496-53.632 119.168 68.48 180.096 149.632 210.24 206.016z m0 0"  horiz-adv-x="1024" />

    
    <glyph glyph-name="-zhuchi" unicode="&#58907;" d="M359.804 256.759c-73.009 0-141.648 28.432-193.273 80.057S86.475 457.079 86.475 530.088s28.431 141.647 80.056 193.272 120.264 80.057 193.273 80.057c8.284 0 15-6.716 15-15s-6.716-15-15-15c-134.172 0-243.329-109.157-243.329-243.329s109.157-243.329 243.329-243.329 243.329 109.157 243.329 243.329c0 67.884-27.26 130.878-76.758 177.379-6.038 5.673-6.334 15.165-0.662 21.203 5.672 6.039 15.165 6.334 21.203 0.662 26.929-25.299 48.126-55.192 63.003-88.851 15.404-34.852 23.214-71.993 23.214-110.394 0-73.009-28.431-141.647-80.057-193.272-51.624-51.625-120.263-80.056-193.272-80.056zM502.954 730.149c-2.861 0-5.752 0.817-8.311 2.523a243.458 243.458 0 0 1-11.553 7.247c-7.139 4.203-9.519 13.397-5.316 20.536 4.203 7.139 13.397 9.519 20.537 5.315a272.297 272.297 0 0 0 12.98-8.142c6.892-4.598 8.751-13.911 4.154-20.803-2.889-4.331-7.646-6.676-12.491-6.676zM432.356 763.088c-1.393 0-2.808 0.195-4.212 0.605a242.47 242.47 0 0 1-29.851 6.699c-8.181 1.3-13.76 8.986-12.46 17.168 1.3 8.183 8.984 13.753 17.168 12.461a272.899 272.899 0 0 0 33.554-7.531c7.952-2.322 12.516-10.651 10.193-18.604-1.913-6.547-7.898-10.798-14.392-10.798zM735.361 20.711000000000013c-3.714 0-7.474 0.175-11.278 0.527-31.552 2.921-62.233 17.835-86.392 41.994L437.899 263.025c-5.858 5.857-5.858 15.355 0 21.213 5.857 5.857 15.355 5.857 21.213 0l199.793-199.793c22.209-22.208 50.361-33.756 76.26-33.758 19.493-0.001 37.706 6.538 51.163 19.994 31.336 31.337 25.162 88.498-13.763 127.423L587.521 383.14700000000005c-5.858 5.857-5.858 15.355 0 21.213 5.857 5.857 15.355 5.857 21.213 0l185.043-185.043c24.159-24.158 39.073-54.84 41.995-86.392 3.018-32.595-7.008-62.233-28.231-83.457-18.747-18.745-44.064-28.756-72.18-28.757zM922.448-35.41700000000003c-0.196 0-0.393 0.004-0.591 0.012-8.278 0.32-14.729 7.291-14.408 15.569 0.358 9.244-0.38 21.235-5.932 25.862-4.095 3.413-14.672 6.206-41.803 0.142-20.503-4.582-34.061 1.858-41.826 8.071-21.843 17.478-22.514 51.63-22.518 55.467-0.01 8.284 6.698 15.008 14.982 15.018h0.019c8.263 0 14.969-6.684 15-14.944 0.052-6.065 2.236-24.945 11.3-32.146 1.427-1.133 5.773-4.587 16.498-2.188 21.993 4.916 49.546 8.635 67.556-6.373 12.152-10.128 17.616-26.507 16.703-50.07-0.314-8.081-6.964-14.42-14.98-14.42zM554.13 208.89999999999998a14.95 14.95 0 0 0-10.606 4.394c-5.858 5.857-5.858 15.355 0 21.213l78.634 78.634c5.857 5.857 15.355 5.857 21.213 0 5.858-5.857 5.858-15.355 0-21.213l-78.634-78.634a14.954 14.954 0 0 0-10.607-4.394zM614.452 148.57899999999995a14.95 14.95 0 0 0-10.606 4.394c-5.858 5.857-5.858 15.355 0 21.213l78.634 78.634c5.857 5.857 15.355 5.857 21.213 0 5.858-5.857 5.858-15.355 0-21.213l-78.634-78.634a14.954 14.954 0 0 0-10.607-4.394z"  horiz-adv-x="1024" />

    
    <glyph glyph-name="-wudao" unicode="&#59056;" d="M840.111788 381.891574l-191.157995 0c-17.885873-29.057299-43.723156-59.700323-81.13579-87.986145l272.293585 44.3957L840.111588 381.891574 840.111788 381.891574zM464.102522 1.7593030000000454l42.3301 0 49.703101 283.692057c-32.594901-22.716598-64.219259-37.124829-93.336518-45.934856L464.102522 1.7593030000000454zM419.140807 613.329658c30.197926 0 54.689321 24.465812 54.689321 54.684724 0 30.202523-24.491395 54.681326-54.689321 54.681326s-54.693318-24.478803-54.693318-54.681326C364.447489 637.795471 388.942681 613.329658 419.140807 613.329658zM553.490717 297.464015c129.269955 92.594021 126.414891 216.188824 124.89692 237.160605l-131.738281-94.390803c-24.355487 25.498712-38.785703 68.420011-35.398 95.479465l117.322256 209.146199-35.63384 25.121368-134.118668-180.143862-279.212494-0.484671-1.376067-41.41632 194.655623-25.220301c3.644129-87.755302 32.615287-144.635137 49.934944-171.176542l-134.076296-96.045681C308.124276 247.32321100000001 424.216165 204.85900200000003 553.490717 297.464015z"  horiz-adv-x="1024" />

    
    <glyph glyph-name="-jiqiren" unicode="&#58919;" d="M511.500488 832.062439c33.104671 0 59.941463-26.836792 59.941463-59.941463 0-21.351149-11.163099-40.094845-27.971684-50.713476L543.469268 640.2497559999999h287.719025c17.655758 0 31.96878-14.313022 31.96878-31.96878v-575.438049c0-17.655758-14.313022-31.96878-31.96878-31.968781H191.812683c-17.655758 0-31.96878 14.313022-31.968781 31.968781V608.280976c0 17.655758 14.313022 31.96878 31.968781 31.96878h287.719024v81.157744c-16.548839 10.452792-27.625022 28.781893-27.96469 49.721444L451.559024 772.120976c0 33.104671 26.836792 59.941463 59.941464 59.941463z m279.726829-263.742439H231.773659v-495.516098h559.453658V568.3199999999999zM631.383415 223.65658499999995a7.992195 7.992195 0 0 0 7.992195-7.992195v-47.95317a7.992195 7.992195 0 0 0-7.992195-7.992196H391.617561a7.992195 7.992195 0 0 0-7.992195 7.992196v47.95317a7.992195 7.992195 0 0 0 7.992195 7.992195h239.765854zM119.882927 496.390244a7.992195 7.992195 0 0 0 7.992195-7.992195v-303.703415a7.992195 7.992195 0 0 0-7.992195-7.992195H71.929756a7.992195 7.992195 0 0 0-7.992195 7.992195V488.398049a7.992195 7.992195 0 0 0 7.992195 7.992195h47.953171z m831.188293 0a7.992195 7.992195 0 0 0 7.992195-7.992195v-303.703415a7.992195 7.992195 0 0 0-7.992195-7.992195h-47.953171a7.992195 7.992195 0 0 0-7.992195 7.992195V488.398049a7.992195 7.992195 0 0 0 7.992195 7.992195h47.953171z m-607.40683-63.937561c30.897826 0 55.945366-25.04754 55.945366-55.945366s-25.04754-55.945366-55.945366-55.945366-55.945366 25.04754-55.945366 55.945366 25.04754 55.945366 55.945366 55.945366z m335.672195 0c30.897826 0 55.945366-25.04754 55.945366-55.945366s-25.04754-55.945366-55.945366-55.945366-55.945366 25.04754-55.945365 55.945366 25.04754 55.945366 55.945365 55.945366z"  horiz-adv-x="1024" />

    
    <glyph glyph-name="-video" unicode="&#59301;" d="M915.008 620.0319999999999L768 554.688V576a128 128 0 0 1-128 128H256a128 128 0 0 1-128-128v-384a128 128 0 0 1 128-128h384a128 128 0 0 1 128 128v21.312l147.008-65.28a32 32 0 0 1 44.992 29.184V590.784a32 32 0 0 1-44.992 29.248zM579.456 359.29600000000005l-143.104-117.824A32 32 0 0 0 384 266.17600000000004V501.824a32 32 0 0 0 52.352 24.704l143.104-117.824a32 32 0 0 0 0-49.408z"  horiz-adv-x="1024" />

    
    <glyph glyph-name="-cart" unicode="&#58894;" d="M371.021938-14.222221999999988m-113.777778 0a113.777778 113.777778 0 1 1 227.555556 0 113.777778 113.777778 0 1 1-227.555556 0ZM797.688604-14.222221999999988m-113.777777 0a113.777778 113.777778 0 1 1 227.555555 0 113.777778 113.777778 0 1 1-227.555555 0ZM851.733049 364.942222l164.408889 328.817778A60.871111 60.871111 0 0 1 961.24416 782.222222h-711.111111l-15.36 46.933334A97.848889 97.848889 0 0 1 143.466382 896H1.24416v-113.777778h129.137778l177.777778-558.933333A97.848889 97.848889 0 0 1 399.466382 156.44444399999998h512v113.777778H412.550827l-17.92 56.888889h395.946666a69.688889 69.688889 0 0 1 61.155556 37.831111z"  horiz-adv-x="1024" />

    
    <glyph glyph-name="-square" unicode="&#59164;" d="M950.857143 658.285714v-548.571428q0-68-48.285714-116.285715T786.285714-54.85714299999995H237.714286q-68 0-116.285715 48.285714T73.142857 109.71428600000002V658.285714q0 68 48.285714 116.285715T237.714286 822.857143h548.571428q68 0 116.285715-48.285714T950.857143 658.285714z"  horiz-adv-x="1024" />

    
    <glyph glyph-name="-text-insert" unicode="&#59044;" d="M832 277.33333300000004V-42.66666699999996h-128v320H512V384h512v-106.666667h-192zM0 810.666667h768v-128H0V810.666667z m341.333333-128h128v-725.333334H341.333333V682.666667z"  horiz-adv-x="1024" />

    
    <glyph glyph-name="-photo-add" unicode="&#58975;" d="M997.524645 372.68645200000003a43.635613 43.635613 0 0 0 44.378839-43.718194v-355.179355a87.601548 87.601548 0 0 0-87.585032-87.585032H88.757677a87.601548 87.601548 0 0 0-87.585032 87.585032V678.928516A87.601548 87.601548 0 0 0 88.757677 766.513548h603.069936a43.569548 43.569548 0 0 0 43.718193-43.734709c0-19.439484-19.439484-43.718194-43.718193-43.718194H130.526968a41.719742 41.719742 0 0 1-41.769291-41.785806v-575.768774s-137.017806 408.080516-15.855483 408.080516c32.900129 0 83.901935-0.710194 128.660645-8.390194C381.258323 430.37729 578.064516 264.753548 578.064516 103.22580600000003c0 0 40.66271 139.47871 166.449549 139.47871s166.086194-176.375742 166.086193-176.375742h43.718194V328.175484c0 24.030968 19.191742 44.263226 43.206193 44.510968zM693.677419 486.499097a95.694452 95.694452 0 1 0 191.372387 0 95.694452 95.694452 0 0 0-191.372387 0zM1124.533677 764.548129a43.569548 43.569548 0 0 0 43.73471-43.718194c0-19.456-19.456-43.73471-43.73471-43.734709h-87.585032v-87.585032a43.569548 43.569548 0 0 0-43.718193-43.73471 43.569548 43.569548 0 0 0-43.73471 43.73471v87.585032h-87.585032a43.569548 43.569548 0 0 0-43.73471 43.734709 43.569548 43.569548 0 0 0 43.73471 43.718194h87.585032V852.133161A43.569548 43.569548 0 0 0 993.230452 895.867871a43.569548 43.569548 0 0 0 43.718193-43.73471v-87.585032h87.585032z"  horiz-adv-x="1172" />

    
    <glyph glyph-name="-plus-circle" unicode="&#58938;" d="M512.006054 893.8749C232.043778 895.606463 2.060711 667.7484959999999 0.014318 386.448194c-2.046393-280.985472 225.103207-512.306565 505.065483-514.431665 283.346695-2.203808 514.746495 224.316133 516.792888 505.852557A510.968539 510.968539 0 0 1 512.006054 893.8749z m-1.574149-927.252058c-227.857967-0.629659-415.260322 186.457867-415.811274 415.260322A416.991886 416.991886 0 0 0 509.802246 799.189879c229.668237 0.472244 417.1493-186.064329 417.46413-415.260322a416.834471 416.834471 0 0 0-416.834471-417.385423zM728.844983 319.861721c37.228607 0.236122 65.484569 27.154058 65.878106 62.10015 0.472244 35.811874-27.547595 63.595591-65.563277 63.989129-41.478808 0.472244-82.957616 0.236122-124.515131 0-9.838427 0-19.676854-1.101904-30.14494-1.810271-0.236122 9.44489-0.393537 15.111824-0.393537 20.778758-0.078707 46.27996 0.472244 92.481213-0.236122 138.682466a62.965932 62.965932 0 0 1-63.202054 63.123347 63.202054 63.202054 0 0 1-62.72981-63.595592c-0.629659-33.057114-0.393537-66.114229 0-99.25005 0.078707-18.811072 1.101904-37.543437 1.731563-57.141584-8.500401-0.31483-13.616383-0.629659-18.811072-0.629659-45.178056 0-90.356113 0.787074-135.534169-0.550952a85.397545 85.397545 0 0 1-39.90466-11.019038c-24.714128-14.796994-33.608066-43.367786-25.422495-70.0496 7.949449-26.130862 31.482966-44.15486 60.28988-44.548397 46.752205-0.472244 93.504409-0.078707 140.256614-0.157415 5.509519 0 11.097746-0.393537 17.473046-0.550951 0-52.261724-0.393537-102.634469-0.157415-153.085923 0.157415-38.487926 26.760521-66.586473 62.493688-67.058718 36.205411-0.393537 63.438177 28.334669 63.674299 67.530963 0.157415 45.729008 0 91.458016 0 137.187024 0.078707 5.037275 0.472244 10.074549 0.787074 16.13502 52.183016 0 103.106714-0.31483 154.030412 0z"  horiz-adv-x="1024" />

    
    <glyph glyph-name="xingzhuang1" unicode="&#59131;" d="M857.088 551.612632h48.020211a90.435368 90.435368 0 0 0 90.435368-90.435369v-180.870737a90.435368 90.435368 0 0 0-90.435368-90.435368h-47.966316a361.795368 361.795368 0 0 0-358.992842-316.577684v90.435368a271.306105 271.306105 0 0 1 271.306105 271.36V506.341053a271.306105 271.306105 0 1 1-542.666105 0v-316.52379H91.136a90.435368 90.435368 0 0 0-90.435368 90.435369V461.177263A90.435368 90.435368 0 0 0 91.136 551.612632h48.020211a361.795368 361.795368 0 0 0 717.931789 0zM91.136 461.177263v-180.870737h45.271579V461.177263h-45.271579z m768.754526 0v-180.870737h45.271579V461.177263h-45.271579z m-553.498947-261.605052l47.966316 76.69221c43.115789-26.947368 92.914526-41.283368 143.791158-41.175579a270.012632 270.012632 0 0 1 143.791158 41.175579l47.966315-76.69221a360.070737 360.070737 0 0 0-191.757473-54.972632 360.070737 360.070737 0 0 0-191.757474 54.972632z"  horiz-adv-x="1024" />

    
    <glyph glyph-name="xingzhuang11" unicode="&#59132;" d="M926.890667 700.131556H638.862222l111.616 111.616a48.64 48.64 0 0 1-68.835555 68.778666L521.443556 720.213333 361.073778 880.526222a48.64 48.64 0 1 1-68.778667-68.835555L403.911111 700.188444H115.825778A48.64 48.64 0 0 1 67.128889 651.377778v-681.301334c0-26.851556 21.788444-48.64 48.696889-48.64h811.064889a48.64 48.64 0 0 1 48.696889 48.64V651.434667a48.64 48.64 0 0 1-48.696889 48.696889zM164.465778 602.794667h713.784889v-129.763556H164.465778v129.706667zM878.250667 18.773333H164.465778V375.694222h713.784889v-356.920889z"  horiz-adv-x="1024" />

    
    <glyph glyph-name="-course" unicode="&#59133;" d="M488.64015-81.27999999999997H54.27215A54.272 54.272 0 0 0 0.00015-26.879999999999995v760h1085.824v-760c0-30.016-24.32-54.272-54.272-54.272H488.64015zM108.60815 27.327999999999975h868.608V624.512H108.60815v-597.12z m488.512 488.64h271.488V407.36H597.12015V515.9680000000001z m0-217.152h271.488v-108.608H597.12015V298.88zM380.03215 515.9680000000001v-162.88h162.88a162.88 162.88 0 1 0-162.88 162.88zM0.00015 896h1085.824v-108.608H0.00015V896z"  horiz-adv-x="1088" />

    
    <glyph glyph-name="-taiquandao" unicode="&#59134;" d="M224.738 458.212l-33.42-35.077 74.82-82.56a62.145 62.145 0 0 0-0.3-88.46c-24.69-24.54-64.585-24.66-88.341-1.024-71.991 65.94-111.494 102.462-120.136 111.404-25.261 26.255-34.685 44.26-20.444 71.088C63.293 502.05 87.561 551.22 110.534 581.72c7.708 10.237 25.563 24.298 55.431 44.32C107.644 642.3 64.89 695.414 64.89 758.462 64.889 834.457 126.974 896 203.572 896s138.803-61.543 138.803-137.539c0-18.698-3.734-36.432-10.538-52.69l20.022 7.045a24.6 24.6 0 0 0 11.442 1.204l147.294-19.3L558.92 803.505a61.874 61.874 0 0 0 81.958 32.879c31.915-13.79 46.94-50.885 34.113-81.656-27.279-75.093-46.428-126.068-57.78-153.015-16.258-39.022-42.905-50.072-78.494-45.345-2.228 0.301-9.846 1.385-11.532 1.686l-13.549 1.807 37.396-35.77 335.717 125.766c32.79 10.659 67.987-7.647 78.826-40.828 10.538-32.548-6.323-67.354-37.937-78.826L614.803 374.65999999999997 502.616 260.33500000000004a15.687 15.687 0 0 0-2.318-2.108l-77.983-329.696c-10.358-37.998-37.516-61.904-80.241-55.1-43.809 6.956-60.249 36.824-50.734 74.039l44.23 389.312c-14.362 15.356-44.923 49.048-110.802 121.43"  horiz-adv-x="1024" />

    
    <glyph glyph-name="information-line" unicode="&#59135;" d="M512-42.667C276.352-42.667 85.333 148.352 85.333 384S276.352 810.667 512 810.667 938.667 619.648 938.667 384 747.648-42.667 512-42.667z m0 85.334a341.333 341.333 0 1 1 0 682.666 341.333 341.333 0 0 1 0-682.666z m-42.667 554.666h85.334V512h-85.334v85.333z m0-170.666h85.334v-256h-85.334v256z"  horiz-adv-x="1024" />

    
    <glyph glyph-name="-legao" unicode="&#59136;" d="M883.9 47.799999999999955V197.29999999999995H660.6v-149.5h223.3z m0 373.8H660.6v-149.5h223.3V421.6z m-521.1 74.8h521.1V645.9H362.8v-149.5z m521.1 224.2c41.1 0 74.4-33.5 74.4-74.8v-635.4c0-20.6-16.7-37.4-37.2-37.4H623.3c-20.6 0-37.2 16.7-37.2 37.4V421.6H325.5c-20.6 0-37.2 16.7-37.2 37.4V645.9c0 41.3 33.3 74.8 74.4 74.8V758c0 20.6 16.7 37.4 37.2 37.4s37.2-16.7 37.2-37.4v-37.4h74.4V758c0 20.6 16.7 37.4 37.2 37.4 20.6 0 37.2-16.7 37.2-37.4v-37.4h74.4V758c0 20.6 16.7 37.4 37.2 37.4 20.6 0 37.2-16.7 37.2-37.4v-37.4h74.4V758c0 20.6 16.7 37.4 37.2 37.4 20.6 0 37.2-16.7 37.2-37.4v-37.4zM362.8 47.799999999999955H139.4V234.70000000000005h223.3v-186.9z m0 261.6v37.4c0 20.6-16.7 37.4-37.2 37.4-20.6 0-37.2-16.7-37.2-37.4v-37.4H214v37.4c0 20.6-16.7 37.4-37.2 37.4s-37.2-16.7-37.2-37.4v-37.4C98.3 309.4 65 276 65 234.70000000000005v-224.3c0-20.6 16.7-37.4 37.2-37.4H400c20.6 0 37.2 16.7 37.2 37.4V234.70000000000005c0 41.3-33.3 74.7-74.4 74.7z"  horiz-adv-x="1024" />

    
    <glyph glyph-name="layout-line" unicode="&#59137;" d="M213.333 554.667h597.334v128H213.333v-128z m384-469.334v384h-384v-384h384z m85.334 0h128v384h-128v-384zM170.667 768h682.666A42.667 42.667 0 0 0 896 725.333v-682.666A42.667 42.667 0 0 0 853.333 0H170.667A42.667 42.667 0 0 0 128 42.667V725.333A42.667 42.667 0 0 0 170.667 768z"  horiz-adv-x="1024" />

    
    <glyph glyph-name="-jita" unicode="&#59138;" d="M807.936 576.512c-19.456-12.288-25.6-36.864-13.312-56.32 16.384-26.624 21.504-50.176 16.384-72.704-7.168-30.72-36.864-62.464-87.04-93.184-96.256-58.368-102.4-107.52-99.328-161.792 2.048-30.72 3.072-52.224-38.912-93.184l-2.048-2.048c-64.512-63.488-107.52-105.472-147.456-108.544-41.984-3.072-100.352 35.84-190.464 125.952s-130.048 148.48-126.976 190.464c3.072 40.96 45.056 82.944 108.544 147.456l3.072 3.072c40.96 40.96 62.464 39.936 93.184 38.912 53.248-3.072 102.4 3.072 161.792 99.328 30.72 51.2 62.464 80.896 93.184 88.064 21.504 5.12 45.056-1.024 71.68-17.408 19.456-12.288 44.032-6.144 56.32 13.312 12.288 19.456 6.144 44.032-13.312 56.32-46.08 28.672-91.136 37.888-134.144 27.648-53.248-12.288-101.376-53.248-144.384-124.928-37.888-62.464-55.296-61.44-87.04-60.416-37.888 2.048-89.088 5.12-155.648-62.464l-3.072-3.072C95.232 436.224 41.984 381.952 36.864 311.29600000000005S73.728 168.96000000000004 187.392 56.32000000000005C293.888-50.176000000000045 363.52-93.18399999999997 430.08-93.18399999999997h11.264c70.656 5.12 124.928 58.368 199.68 132.096l3.072 3.072c67.584 66.56 64.512 117.76 62.464 155.648-2.048 31.744-3.072 49.152 60.416 87.04 69.632 41.984 111.616 90.112 123.904 143.36 10.24 43.008 2.048 89.088-26.624 134.144-11.264 19.456-36.864 25.6-56.32 14.336zM530.432 222.20799999999997c49.152 49.152 49.152 129.024 0 178.176-23.552 23.552-55.296 36.864-89.088 36.864s-65.536-13.312-89.088-36.864c-49.152-49.152-49.152-129.024 0-178.176 24.576-24.576 56.32-36.864 89.088-36.864s64.512 12.288 89.088 36.864zM410.624 342.01599999999996c8.192 8.192 19.456 13.312 30.72 13.312s22.528-4.096 30.72-13.312c17.408-17.408 17.408-45.056 0-61.44-17.408-17.408-45.056-17.408-61.44 0s-16.384 45.056 0 61.44z m568.32 409.6l-97.28 97.28c-14.336 14.336-36.864 14.336-50.176 0l-36.864-36.864c-14.336-14.336-14.336-36.864 0-50.176L814.08 742.4 543.744 471.04c-16.384-16.384-16.384-41.984 0-58.368 8.192-8.192 18.432-12.288 28.672-12.288s20.48 4.096 28.672 12.288l270.336 270.336 19.456-19.456c14.336-14.336 36.864-14.336 50.176 0l36.864 36.864c15.36 14.336 15.36 36.864 1.024 51.2z m-615.424-588.8c-1.024 0-26.624-2.048-49.152 20.48-24.576 24.576-25.6 56.32-25.6 58.368 0 22.528-17.408 40.96-39.936 40.96-22.528 1.024-40.96-17.408-41.984-39.936 0-7.168 0-67.584 49.152-117.76 38.912-38.912 83.968-45.056 104.448-45.056 6.144 0 10.24 0 12.288 1.024 22.528 3.072 38.912 23.552 35.84 46.08-2.048 22.528-22.528 38.912-45.056 35.84z"  horiz-adv-x="1024" />

    
    <glyph glyph-name="-meishu" unicode="&#59139;" d="M186.315965 14.846973000000048a7.679999 7.679999 0 0 0-2.329999 0.256c-0.384 0-0.64-0.256-1.05-0.256h3.379999zM143.589973 342.269913a81.919985 81.919985 0 1 0 82.609985-80.895985 81.355985 81.355985 0 0 0-82.609985 80.895985z m65.125988 272.125949a80.895985 80.895985 0 0 0 56.31999 54.27199 81.919985 81.919985 0 1 0 17.355997-161.02297 81.202985 81.202985 0 0 0-73.803987 106.74998zM531.989901 773.882833a82.098985 82.098985 0 1 0-80.920985-82.942985 81.483985 81.483985 0 0 0 80.919985 82.942985z m-253.873953-684.539873c28.876995 49.663991 75.723986 127.742976 191.486965 132.094975-0.256-3.071999 2.56 26.623995 2.559999 26.623995 17.612997 82.943985 26.546995 124.669977 98.405982 193.279964 52.04399 49.149991 180.349967 162.81397 269.41295 240.893956a120.319978 120.319978 0 0 1 21.759996 42.495992C861.74184 835.834821 678.524874 895.99481 503.753907 895.99481 223.716958 897.27481-1.587 661.754853 0.102 379.388906a563.683895 563.683895 0 0 1 120.012978-325.37394 97.279982 97.279982 0 0 1 63.999988-38.911993c46.078991 0.256 66.020988 26.111995 94.129982 74.239987zM840.008844 282.109924c-30.412994-74.751986-104.729981-183.039966-225.919958-183.039966v-0.767c0-148.479972-65.509988-201.214963-81.919985-225.022958 15.002997 0 96.307982 10.495998 96.307982 10.495998 157.054971 28.927995 274.737949 134.142975 247.959954 275.198949-7.397999 38.654993-38.066993 119.294978-36.529993 123.134977z m138.799974 443.901918s-285.232947-252.414953-366.665932-329.469939c-62.539988-59.903989-64.357988-87.551984-84.683984-181.503967a14.847997 14.847997 0 0 1 4.786999-14.079997l57.87999-48.639991a14.130997 14.130997 0 0 1 9.319998-3.326999 14.539997 14.539997 0 0 1 5.707999 1.023999c86.732984 36.349993 113.663979 43.262992 159.76997 116.222979 61.105989 95.999982 254.666953 425.725921 254.666953 425.725921a26.699995 26.699995 0 0 1-40.779993 34.047994z m-431.27992-630.269884l-68.223987 61.184989a14.565997 14.565997 0 0 1-10.085998 3.328h-0.538c-165.963969 0-115.609979-205.566962-265.546951-205.566962a170.341968 170.341968 0 0 0-41.164992 18.942996C205.489962-109.82400299999995 280.958948-128 349.053935-128c106.16298 0 211.813961 72.447987 204.184962 212.734961a14.924997 14.924997 0 0 1-5.709999 11.007997"  horiz-adv-x="1024" />

    
    <glyph glyph-name="-close" unicode="&#59140;" d="M964.608 836.608a106.624 106.624 0 0 0 0-150.912L662.912 384.128l301.696-301.824a106.624 106.624 0 1 0-150.912-150.912L512 233.216 210.304-68.60799999999995A106.624 106.624 0 1 0 59.392 82.30399999999997l301.696 301.824L59.392 685.696A106.624 106.624 0 1 0 210.304 836.608L512 534.912 813.696 836.608a106.624 106.624 0 0 0 150.912 0z"  horiz-adv-x="1024" />

    
    <glyph glyph-name="-editing" unicode="&#59141;" d="M224.49981 179.68761900000004L746.496 699.63581 673.743238 772.144762 151.649524 252.14781000000005v-72.508953h72.801524z m42.666666-102.595048H48.761905v217.575619L637.318095 880.981333c20.089905 19.992381 52.662857 19.992381 72.801524 0l145.603048-145.066666c20.089905-19.992381 20.089905-52.46781 0-72.508953L267.166476 77.09257100000002zM48.761905-25.45371399999999h926.47619V-128H48.761905v102.546286z"  horiz-adv-x="1024" />

    
    <glyph glyph-name="dianhua" unicode="&#59142;" d="M597.826816 877.0048a46.08 46.08 0 0 1-54.6304-35.9424 45.7728 45.7728 0 0 1 6.656-34.7648c6.8096-10.3424 17.2032-17.408 29.2864-19.8144a370.2272 370.2272 0 0 0 235.776-160.1024 370.1248 370.1248 0 0 0 53.8112-279.8592 45.6704 45.6704 0 0 1 6.656-34.7648 45.9264 45.9264 0 0 1 36.864-20.7872 46.08 46.08 0 0 1 47.0528 36.864c51.712 251.0336-110.4384 497.408-361.472 549.1712z m79.5648-694.3232c2.7648-1.792 63.744-40.96 110.592-89.088 17.664-18.2272 47.2064-48.64 46.4384-84.0192-0.6656-24.1664-14.2848-48.3328-41.6768-73.9328-6.8096-6.656-67.7888-63.6416-165.376-63.6416a280.576 280.576 0 0 0-81.6128 12.5952 373.5552 373.5552 0 0 0-87.04 40.0384c-114.176 67.4304-202.24 154.2144-285.8496 281.4976C29.199616 424.8576 25.001216 612.2496 25.666816 647.5264 25.922816 810.496 161.602816 874.5984 177.116416 881.3568 198.364416 891.2384 217.001216 896 234.102016 896c8.192 0 16.0768-1.1264 23.3472-3.328 14.9504-4.5568 35.7376-16.3328 49.664-46.592 19.0976-40.96 37.12-99.84 49.408-161.3824 12.9536-63.9488-22.8864-81.92-57.5488-99.2256l-1.3824-0.6144s-61.3376-25.6-72.0896-30.0032a22.1184 22.1184 0 0 1-12.544-27.2896c24.7296-74.9056 62.5152-152.576 109.2096-224.6144 45.8752-70.912 100.5056-136.3456 157.8496-189.3376 4.096-3.7376 9.3696-5.8368 14.9504-5.8368l1.8944 0.1024a22.016 22.016 0 0 1 15.4624 8.3968c9.3696 11.9808 23.6544 29.2864 38.7584 43.6224 28.5696 27.2384 54.4768 40.448 79.0528 40.448 6.7584 0 13.4144-1.024 19.8656-2.9696 6.144-1.8944 16.1792-7.2704 27.392-14.6944zM483.343616 498.0224a45.9776 45.9776 0 0 0-29.2864 19.8656 46.08 46.08 0 0 0 47.9232 70.656 199.0144 199.0144 0 0 0 154.5216-234.752 45.9776 45.9776 0 0 0-54.5792-35.8912 45.7216 45.7216 0 0 0-29.3376 19.8656 45.824 45.824 0 0 0-6.656 34.7136 105.472 105.472 0 0 1-15.36 79.872 105.472 105.472 0 0 1-67.2256 45.6704z m48.0256 144.7936a46.2848 46.2848 0 0 0 11.1104 91.4944c2.56-0.1024 5.12-0.4096 7.5776-0.9728a330.24 330.24 0 0 0 210.432-142.848 330.0352 330.0352 0 0 0 47.9744-249.7536 45.7728 45.7728 0 0 0-19.8656-29.2864 45.7216 45.7216 0 0 0-34.7648-6.656 46.2848 46.2848 0 0 0-35.84 54.5792 238.336 238.336 0 0 1-34.7136 180.3264 238.2336 238.2336 0 0 1-151.9104 103.1168z"  horiz-adv-x="1024" />

    
    <glyph glyph-name="fenxiang" unicode="&#59143;" d="M457.152 327.04H331.648a170.688 170.688 0 1 0 0 113.792h125.44l197.12 341.248h180.224a170.688 170.688 0 1 0 0.064-113.728h-114.688L555.648 384l164.224-284.416h114.624a170.688 170.688 0 1 0 0-113.728h-180.352L457.152 327.04z"  horiz-adv-x="1216" />

    
    <glyph glyph-name="-hongpei" unicode="&#59144;" d="M256 0h512V-128H256v128zM1024 550.4c0 128-102.4 230.4-230.4 230.4-19.2 0-32 0-51.2-6.4C691.2 851.2 601.6 896 512 896c-89.6 0-179.2-44.8-230.4-115.2H230.4c-128 0-230.4-102.4-230.4-230.4 0-115.2 83.2-204.8 185.6-230.4l51.2-256H793.6l51.2 262.4c96 19.2 179.2 115.2 179.2 224z m-684.8-358.4l-25.6 140.8c19.2 6.4 32 12.8 51.2 25.6 89.6-51.2 204.8-51.2 294.4 0 12.8-12.8 32-19.2 51.2-25.6l-25.6-140.8h-345.6z m454.4 256c-32 0-57.6 12.8-76.8 38.4l-44.8 51.2-51.2-44.8c-57.6-57.6-160-57.6-217.6 0L352 537.6 307.2 486.4c-12.8-25.6-44.8-38.4-76.8-38.4a101.083429 101.083429 0 0 0-102.4 102.4c0 57.6 44.8 102.4 102.4 102.4 19.2 0 32-6.4 44.8-12.8l57.6-32 25.6 57.6c32 64 89.6 102.4 153.6 102.4s121.6-38.4 147.2-96l25.6-57.6 57.6 32c12.8 6.4 32 12.8 44.8 12.8 57.6 0 102.4-44.8 102.4-102.4 0-57.6-38.4-108.8-96-108.8z"  horiz-adv-x="1024" />

    
    <glyph glyph-name="-plan" unicode="&#59145;" d="M345.002667 895.232v-98.474667h295.338666V895.232h98.474667v-98.474667h196.906667c27.221333 0 49.237333-22.016 49.237333-49.194666V-40.106667000000016c0-27.221333-22.016-49.237333-49.237333-49.237333H49.621333A49.237333 49.237333 0 0 0 0.384-40.106667000000016V747.52c0 27.221333 22.058667 49.237333 49.237333 49.237333h196.906667V895.232h98.474667z m541.482666-344.618667H98.858667v-541.525333h787.626666V550.613333z m-244.352-105.130666l69.589334-69.632-243.626667-243.669334-174.08 174.08 69.674667 69.589334 104.405333-104.448 174.08 174.08h-0.042667z"  horiz-adv-x="1024" />

    
    <glyph glyph-name="-shougong" unicode="&#59146;" d="M0 68.89048300000002h1262.874483V-128H0v196.890483z m1149.422345 381.245793a558.11531 558.11531 0 0 1-113.487448 168.041931l83.791448 84.391724-90.959448 91.559724-93.925518-94.596414A547.239724 547.239724 0 0 1 706.913103 779.828966V896h-128.635586v-116.206345a547.380966 547.380966 0 0 1-234.778483-84.638896L245.230345 794.129655 154.306207 702.49931l89.441103-90.041379a557.974069 557.974069 0 0 1-107.943724-162.356965H2.824828v-129.518345h94.455172c-5.296552-31.073103-7.909517-62.605241-7.909517-94.13738 0-5.649655 0.670897-11.22869 0.847448-16.878344h324.961103c-0.459034 5.649655-1.694897 11.052138-1.694896 16.878344 0 127.364414 102.541241 230.717793 229.093517 230.717793 126.587586 0 229.164138-103.353379 229.164138-230.717793 0-5.790897-1.271172-11.22869-1.730207-16.878344h324.961104c0.176552 5.649655 0.847448 11.193379 0.847448 16.878344 0 32.097103-2.718897 63.558621-7.909517 94.13738H1271.172414v129.518345h-121.750069z"  horiz-adv-x="1271" />

    
    <glyph glyph-name="-trash" unicode="&#59147;" d="M256 793.6V896h512v-102.4H1024v-102.4h-102.4v-768c0-28.281905-22.918095-51.2-51.2-51.2H153.6c-28.281905 0-51.2 22.918095-51.2 51.2V691.2H0V793.6h256zM204.8 691.2v-716.8h614.4V691.2H204.8z m153.6-153.6h102.4v-409.6h-102.4v409.6z m204.8 0h102.4v-409.6h-102.4v409.6z"  horiz-adv-x="1024" />

    
    <glyph glyph-name="-upload" unicode="&#59149;" d="M0.8192 224.72704a348.63104 348.63104 0 0 0 164.4544 296.20224C192.75776 735.1910399999999 375.15264 895.71328 591.19616 895.71328c216.04352 0 398.4384-160.52224 425.92256-374.784a348.85632 348.85632 0 0 0-157.57312-644.03456l-536.69888-1.024C142.7456-109.42463999999995 0.83968 41.062400000000025 0.83968 224.72704z m850.55488-240.82432a241.50016 241.50016 0 0 1 108.9536 445.93152l-43.3152 27.01312-6.43072 50.54464a322.06848 322.06848 0 0 1-638.83264 0l-6.43072-50.54464-43.2128-27.01312a241.50016 241.50016 0 0 1 108.91264-445.93152l9.27744-0.69632h501.80096l9.27744 0.69632z m-206.52032 321.3312h161.01376L591.19616 573.56288 376.5248 305.23392h160.99328V90.52160000000003h107.33568V305.23392z"  horiz-adv-x="1187" />

    
    <glyph glyph-name="-home" unicode="&#59150;" d="M997.7344-69.12c0-29.8496-24.1664-54.016-54.016-54.016H79.616A54.016 54.016 0 0 0 25.6-69.12V498.4832c0 16.6912 7.68 32.4608 20.8384 42.7008L478.5152 877.2096c19.456 15.1552 46.7968 15.1552 66.304 0l432.128-336.0256c13.1072-10.24 20.8384-26.0096 20.7872-42.7008V-69.12z m-108.032 54.016V472.1664L511.744 766.1568 133.632 472.1664v-487.2704h756.1216zM241.664 200.96000000000004h540.1088v-108.032H241.6128v108.032z"  horiz-adv-x="1024" />

    
    <glyph glyph-name="-shuxue" unicode="&#59151;" d="M177.595733 424.277333h118.101334V600.7808h177.152V719.530667h-177.152V896h-118.101334v-176.469333H0.512V600.746667h177.083733v-176.469334z m394.24 295.253334V600.746667h451.9936V719.530667H571.8016z m-182.1696-373.76L236.544 192.34133299999996l-152.644267 152.814934-83.490133-83.490134 152.644267-152.644266L0-44.03200000000004l83.899733-83.899733 153.122134 153.053866 152.644266-152.644266 83.490134 83.490133-152.644267 152.644267 153.053867 153.053866-83.899734 84.104534z m412.672-350.651734a58.6752 58.6752 0 1 1 58.641067-58.709333 58.6752 58.6752 0 0 1-58.504533 58.504533l-0.136534 0.2048z m-230.946133 74.3424H1024V188.07466699999998H571.392v-118.647467z m289.655467 237.056a58.197333 58.197333 0 1 1-58.197334-58.709333 58.5728 58.5728 0 0 1 58.026667 58.709333h0.170667z"  horiz-adv-x="1024" />

    
    <glyph glyph-name="-message" unicode="&#59152;" d="M229.205333 74.24000000000001L0.384-105.42933300000004V844.629333C0.426667 873.002667 23.466667 896 51.754667 896H976.213333c28.373333 0 51.328-22.997333 51.328-51.370667v-719.018666c0-28.330667-22.954667-51.328-51.328-51.328H229.205333z m-35.541333 102.741333h731.178667V793.301333H103.082667V105.81333299999994l90.581333 71.125334z m268.970667 359.509334h102.698666v-102.698667h-102.698666V536.490667z m-205.44 0h102.698666v-102.698667H257.194667V536.490667z m410.88 0h102.698666v-102.698667h-102.698666V536.490667z"  horiz-adv-x="1066" />

    
    <glyph glyph-name="wode" unicode="&#59153;" d="M501.9648 358.0928A268.9536 268.9536 0 1 0 501.9648 896a268.9536 268.9536 0 0 0 0-537.9072z m0 437.0432a168.0896 168.0896 0 1 1 0-336.1792 168.0896 168.0896 0 0 1 0 336.1792zM924.8256-121.4976H85.5552c-15.872 0-31.1296 5.3248-42.3936 14.848A47.3088 47.3088 0 0 0 25.6-70.656c0.2048 215.2448 205.824 389.632 459.6224 389.8368h39.936c253.7472-0.1536 459.4176-174.592 459.6224-389.8368 0-28.1088-26.8288-50.8416-59.904-50.8416zM148.736-24.32h706.4576c-29.0816 138.752-169.472 239.7184-333.312 239.8208h-39.8336c-163.8912-0.1024-304.2304-101.0688-333.312-239.8208z"  horiz-adv-x="1024" />

    
    <glyph glyph-name="xingzhuang2" unicode="&#59154;" d="M933.705143 384A140.214857 140.214857 0 0 0 1024 514.852571a525.092571 525.092571 0 0 1-57.380571 138.605715 140.032 140.032 0 0 0-185.051429 185.161143A527.433143 527.433143 0 0 1 642.889143 896 140.434286 140.434286 0 0 0 512 805.705143 140.214857 140.214857 0 0 0 381.147429 896C331.776 883.419429 285.257143 864 242.541714 838.619429a140.178286 140.178286 0 0 0-28.708571-156.342858 140.434286 140.434286 0 0 0-156.342857-28.781714A521.581714 521.581714 0 0 1 0 514.889143 140.434286 140.434286 0 0 0 90.294857 384 140.214857 140.214857 0 0 0 0 253.147429c12.580571-49.371429 32-95.890286 57.380571-138.605715a140.032 140.032 0 0 0 185.051429-185.161143A527.433143 527.433143 0 0 1 381.110857-128 140.434286 140.434286 0 0 0 512-37.705143 140.214857 140.214857 0 0 0 642.852571-128a525.092571 525.092571 0 0 1 138.605715 57.380571 140.178286 140.178286 0 0 0 28.708571 156.342858 140.434286 140.434286 0 0 0 156.342857 28.781714A521.581714 521.581714 0 0 1 1024 253.110857 140.214857 140.214857 0 0 0 933.705143 384zM512 243.419429a140.617143 140.617143 0 0 0 0 281.161142 140.617143 140.617143 0 0 0 0-281.161142z"  horiz-adv-x="1024" />

    
    <glyph glyph-name="-youyong" unicode="&#59155;" d="M1152.69632 391.94624a143.81056 143.81056 0 1 1 287.66208 0 143.81056 143.81056 0 0 1-287.66208 0zM1101.49632 306.83136l-44.11392 237.19936-114.15552 231.05536s-19.2512 67.01056-118.21056 89.7024A1601.29024 1601.29024 0 0 1 548.53632 896c-43.66336-7.82336-65.45408-32.768-65.45408-74.91584-1.2288-40.5504 26.05056-76.47232 65.45408-86.2208 157.0816-4.25984 240.51712-15.23712 250.2656-32.93184 14.66368-26.78784 64.7168-147.6608 26.2144-168.26368-38.5024-20.60288-263.9872-142.1312-293.43744-152.49408-29.4912-10.40384-170.1888-92.61056-170.1888-92.61056s69.87776-89.9072 170.1888-113.58208c100.31104-23.71584 156.71296-15.9744 211.7632 13.63968 55.0912 29.65504 82.24768 64.3072 154.05056 99.9424 48.5376 23.7568 116.3264 29.81888 203.53024 18.26816h0.57344zM18.10432 127.01696000000004a162.11968 162.11968 0 0 0 120.70912 81.26464 272.05632 272.05632 0 0 0 170.96704-23.30624c53.12512-24.82176 170.96704-107.80672 224.09216-124.55936 53.16608-16.7936 91.66848-30.22848 149.99552 0s206.0288 138.4448 285.32736 138.4448c79.33952 0 118.9888-9.25696 181.00224-57.7536 61.97248-48.5376 181.16608-103.2192 235.47904-103.2192 54.272 0 96.256 53.53472 140.53376 53.53472s76.06272-99.9424 24.45312-152.90368c-51.6096-52.92032-113.78688-65.04448-181.94432-65.04448-68.15744 0-152.08448 34.816-189.44 75.44832-37.35552 40.63232-162.89792 143.23712-298.06592 49.47968-135.168-93.75744-197.34528-124.928-285.9008-124.928-88.55552 0-169.61536 65.82272-218.9312 93.3888-49.27488 27.48416-115.5072 93.55264-192.512 71.80288-15.19616-4.25984-42.35264-33.71008-59.67872-40.26368-20.60288-7.70048-94.16704-31.5392-115.5072 10.40384-13.68064 27.93472-11.18208 67.1744 7.65952 118.21056h1.76128z"  horiz-adv-x="1597" />

    
    <glyph glyph-name="yuyue" unicode="&#59156;" d="M509.305263-128h-452.715789c-15.090526 0-29.480421 6.036211-40.04379 16.707368A57.020632 57.020632 0 0 0 0-70.979368V725.315368h1131.789474v-796.294736c0-31.474526-25.330526-56.912842-56.589474-56.912843H509.305263V-128zM113.178947-14.174316h905.431579V611.543579H113.178947v-625.717895z m509.197474 512H905.431579V384h-282.947368V497.825684z m0-227.543579H905.431579v-113.825684h-282.947368v113.879579-0.053895zM396.126316 497.825684v-170.684631h169.768421a170.199579 170.199579 0 0 0-169.768421-170.684632 170.199579 170.199579 0 0 0-169.768421 170.684632 170.199579 170.199579 0 0 0 169.768421 170.684631zM0 896h1131.789474v-113.825684H0V896z"  horiz-adv-x="1131" />

    
    <glyph glyph-name="-gangqin" unicode="&#59157;" d="M902.981818 896c65.163636 0 117.915152-52.751515 117.915152-117.915152v-108.60606c0-24.824242 9.309091-52.751515 31.030303-68.266667l83.781818-74.472727c18.618182-18.618182 31.030303-43.442424 31.030303-68.266667v-114.812121c24.824242-6.206061 40.339394-27.927273 43.442424-52.751515v-192.387879c0-31.030303-24.824242-52.751515-52.751515-52.751515h-65.163636v-124.121212c0-24.824242-18.618182-46.545455-46.545455-46.545455h-3.10303c-27.927273 0-49.648485 21.721212-49.648485 46.545455v124.121212H546.133333v-124.121212c0-24.824242-18.618182-46.545455-46.545454-46.545455l-3.103031-3.10303c-27.927273 0-49.648485 21.721212-49.648484 46.545455v124.121212H294.787879v-124.121212c0-24.824242-18.618182-46.545455-46.545455-46.545455h-3.10303c-27.927273 0-49.648485 21.721212-49.648485 46.545455v124.121212H158.254545c-86.884848 0-155.151515 68.266667-158.254545 152.048485v96.193939c0 31.030303 24.824242 52.751515 52.751515 52.751515h111.709091L791.272727 858.763636C822.30303 880.484848 859.539394 896 899.878788 896h3.10303z m0-93.090909H899.878788c-18.618182 0-34.133333-6.206061-46.545455-18.618182L316.509091 346.763636h378.569697c24.824242 0 46.545455-21.721212 46.545454-46.545454s-21.721212-46.545455-46.545454-46.545455H89.987879v-52.751515c0-37.236364 27.927273-65.163636 65.163636-65.163636h915.39394c24.824242 0 43.442424 18.618182 43.442424 43.442424h3.10303v74.472727h-158.254545c-24.824242 0-46.545455 21.721212-46.545455 46.545455s21.721212 46.545455 46.545455 46.545454h117.915151v108.606061L992.969697 529.8424239999999c-40.339394 34.133333-62.060606 86.884848-62.060606 139.636364V774.981818c-3.10303 15.515152-12.412121 27.927273-27.927273 27.927273z m-74.472727-127.224243c21.721212 0 40.339394-18.618182 40.339394-40.339393h-3.10303v-347.539394c0-24.824242-18.618182-43.442424-43.442425-43.442425-24.824242 0-43.442424 18.618182-43.442424 43.442425V638.448485c0 21.721212 18.618182 40.339394 40.339394 40.339394h9.309091v-3.103031z"  horiz-adv-x="1210" />

    
    <glyph glyph-name="keshi" unicode="&#59158;" d="M550.414629-5.032229v-96.548571h-96.548572v96.548571h-389.12c-29.257143 0-49.737143 20.48-49.737143 49.737143v681.691429h974.262857v-681.691429c0-26.331429-20.48-49.737143-49.737142-49.737143h-389.12z m-438.857143 96.548572h781.165714v538.331428h-781.165714v-538.331428z m438.857143 438.857143h242.834285v-96.548572h-242.834285v96.548572z m0-193.097143h242.834285v-96.548572h-242.834285v96.548572z m-193.097143 193.097143v-146.285715h146.285714c0-81.92-64.365714-146.285714-146.285714-146.285714s-146.285714 64.365714-146.285715 146.285714 64.365714 146.285714 146.285715 146.285715zM15.008914 872.682057h974.262857v-96.548571H15.008914v96.548571z"  horiz-adv-x="1024" />

    
    <glyph glyph-name="lipin" unicode="&#59159;" d="M919.605895 675.112421h-293.726316l113.178947 113.178947c18.863158 18.863158 18.863158 51.2 0 70.063158-18.863158 18.863158-48.505263 18.863158-70.063158 0l-164.378947-164.378947-164.378947 164.378947c-10.778947 13.473684-29.642105 18.863158-45.810527 13.473685-16.168421-5.389474-32.336842-16.168421-37.726315-35.031579-2.694737-16.168421 2.694737-35.031579 13.473684-48.505264l113.178947-113.178947h-293.726316c-26.947368 0-48.505263-24.252632-48.505263-51.2v-697.936842c0-26.947368 21.557895-48.505263 48.505263-48.505263h829.978948c26.947368 0 48.505263 21.557895 48.505263 48.505263v697.936842c2.694737 26.947368-18.863158 51.2-48.505263 51.2z m-778.778948-99.705263h730.273685v-132.042105h-730.273685v132.042105z m730.273685-598.231579h-730.273685v363.789474h730.273685v-363.789474z"  horiz-adv-x="1024" />

    
    <glyph glyph-name="rili" unicode="&#59160;" d="M358.4 896v-102.4h307.2V896h102.4v-102.4h204.8c30.72 0 51.2-20.48 51.2-51.2v-819.2c0-30.72-20.48-51.2-51.2-51.2H51.2c-30.72 0-51.2 20.48-51.2 51.2V742.4c0 30.72 20.48 51.2 51.2 51.2h204.8V896h102.4z m563.2-358.4H102.4v-563.2h819.2V537.6zM307.2 230.4c30.72 0 51.2-20.48 51.2-51.2v-51.2c0-30.72-20.48-51.2-51.2-51.2H256c-30.72 0-51.2 20.48-51.2 51.2v51.2c0 30.72 20.48 51.2 51.2 51.2h51.2z m204.8 0c30.72 0 51.2-20.48 51.2-51.2v-51.2c0-30.72-20.48-51.2-51.2-51.2H460.8c-30.72 0-51.2 20.48-51.2 51.2v51.2c0 30.72 20.48 51.2 51.2 51.2h51.2zM307.2 435.2c30.72 0 51.2-20.48 51.2-51.2v-51.2c0-30.72-20.48-51.2-51.2-51.2H256c-30.72 0-51.2 20.48-51.2 51.2v51.2c0 30.72 20.48 51.2 51.2 51.2h51.2z m204.8 0c30.72 0 51.2-20.48 51.2-51.2v-51.2c0-30.72-20.48-51.2-51.2-51.2H460.8c-30.72 0-51.2 20.48-51.2 51.2v51.2c0 30.72 20.48 51.2 51.2 51.2h51.2z m256 0c30.72 0 51.2-20.48 51.2-51.2v-51.2c0-30.72-20.48-51.2-51.2-51.2h-51.2c-30.72 0-51.2 20.48-51.2 51.2v51.2c0 30.72 20.48 51.2 51.2 51.2h51.2z"  horiz-adv-x="1024" />

    
    <glyph glyph-name="-tiyan" unicode="&#59161;" d="M358.4 896v-102.4h307.2V896h102.4v-102.4h204.8c30.72 0 51.2-20.48 51.2-51.2v-819.2c0-30.72-20.48-51.2-51.2-51.2H51.2c-30.72 0-51.2 20.48-51.2 51.2V742.4c0 30.72 20.48 51.2 51.2 51.2h204.8V896h102.4z m563.2-358.4H102.4v-563.2h819.2V537.6zM394.24 424.96v-56.32h102.4v-46.08H419.84l5.12-15.36c20.48-46.08 46.08-81.92 81.92-117.76-10.24-15.36-20.48-30.72-30.72-51.2-5.12 5.12-10.24 15.36-15.36 20.48l-10.24 10.24v-35.84H394.24V76.79999999999995h-46.08v56.32H291.84V179.20000000000005l-10.24-15.36c-5.12-10.24-15.36-15.36-20.48-25.6-5.12 10.24-10.24 20.48-20.48 30.72l-5.12 10.24v-97.28h-40.96v153.6l-5.12-15.36c-5.12-10.24-10.24-15.36-15.36-25.6-5.12 20.48-5.12 40.96-10.24 66.56 15.36 30.72 30.72 71.68 46.08 128l10.24 30.72 46.08-10.24-10.24-15.36c-5.12-15.36-10.24-30.72-10.24-40.96l-10.24-20.48v-143.36l10.24 15.36c25.6 30.72 51.2 66.56 66.56 107.52l5.12 15.36H256v46.08h92.16v51.2h46.08z m245.76-15.36l-10.24-138.24h20.48v-51.2c0-30.72 0-51.2-5.12-66.56v-10.24c0-30.72-10.24-46.08-30.72-51.2h-66.56c0 15.36-5.12 30.72-5.12 46.08 15.36 0 30.72-5.12 46.08-5.12 10.24 0 20.48 5.12 20.48 15.36v20.48 56.32h-87.04l10.24 128h40.96l-10.24-87.04h25.6l10.24 97.28h-76.8v46.08h117.76z m158.72-153.6l40.96-10.24-5.12-25.6c-5.12-20.48-10.24-35.84-15.36-56.32l-10.24-30.72h40.96v-40.96h-204.8v40.96H768l10.24 25.6c5.12 25.6 15.36 51.2 20.48 71.68v25.6z m-112.64-5.12l10.24-20.48 15.36-46.08 10.24-25.6-35.84-15.36c-5.12 20.48-15.36 46.08-25.6 76.8l-5.12 15.36 30.72 15.36z m-97.28-46.08v-40.96c-15.36 0-35.84-5.12-51.2-5.12l-25.6-5.12v40.96l25.6 5.12 35.84 5.12h15.36z m163.84 61.44l10.24-30.72 5.12-30.72 5.12-30.72-40.96-10.24c-5.12 25.6-10.24 46.08-15.36 76.8v15.36l35.84 10.24z m-404.48 40.96l-5.12-20.48c-10.24-30.72-20.48-61.44-35.84-87.04l-10.24-15.36h51.2v122.88z m46.08-5.12v-117.76h51.2c-20.48 30.72-35.84 61.44-46.08 102.4l-5.12 15.36z m384 122.88l-10.24-10.24 10.24-15.36c25.6-35.84 51.2-56.32 81.92-76.8-10.24-15.36-15.36-25.6-25.6-40.96l-10.24 10.24-10.24 10.24v-20.48h-133.12v20.48l-10.24-10.24-15.36-10.24c-5.12 15.36-15.36 30.72-20.48 46.08 35.84 25.6 61.44 56.32 81.92 92.16l10.24 15.36h51.2v-10.24z m-30.72-51.2c-10.24-15.36-20.48-25.6-30.72-40.96l-10.24-10.24h87.04c-20.48 10.24-35.84 30.72-46.08 51.2z"  horiz-adv-x="1024" />

    
    <glyph glyph-name="wanju" unicode="&#59162;" d="M173.795556 343.608889c0 238.933333 139.377778 446.577778 332.8 529.066667 193.422222-82.488889 332.8-290.133333 332.8-529.066667 0-39.822222-2.844444-76.8-11.377778-113.777778l91.022222-88.177778c8.533333-8.533333 8.533333-19.911111 5.688889-28.444444l-119.466667-216.177778c-2.844444-5.688889-11.377778-11.377778-17.066666-11.377778-8.533333 0-14.222222 2.844444-19.911112 5.688889l-105.244444 105.244445c-8.533333 8.533333-19.911111 14.222222-34.133333 14.222222h-244.622223c-11.377778 0-25.6-5.688889-34.133333-14.222222l-105.244444-105.244445c-5.688889-5.688889-11.377778-8.533333-19.911111-5.688889-8.533333 0-14.222222 5.688889-17.066667 11.377778l-119.466667 216.177778c-5.688889 8.533333-2.844444 19.911111 5.688889 28.444444l91.022222 88.177778c-5.688889 36.977778-11.377778 73.955556-11.377777 113.777778z m71.111111-318.577778l39.822222 39.822222c25.6 25.6 62.577778 42.666667 99.555555 42.666667h244.622223c36.977778 0 73.955556-14.222222 99.555555-42.666667l39.822222-39.822222 45.511112 85.333333-51.2 48.355556c-22.755556 22.755556-34.133333 54.044444-28.444445 85.333333 5.688889 31.288889 8.533333 62.577778 8.533333 96.711111 0 182.044444-93.866667 347.022222-236.088888 423.822223-142.222222-79.644444-236.088889-241.777778-236.088889-423.822223 0-34.133333 2.844444-65.422222 8.533333-96.711111 5.688889-31.288889-5.688889-65.422222-28.444444-85.333333l-51.2-48.355556 45.511111-85.333333z m261.688889 318.577778c-51.2 0-93.866667 42.666667-93.866667 93.866667 0 51.2 42.666667 93.866667 93.866667 93.866666 51.2 0 93.866667-42.666667 93.866666-93.866666 0-51.2-42.666667-93.866667-93.866666-93.866667z"  horiz-adv-x="1024" />

    
    <glyph glyph-name="zhengke" unicode="&#59163;" d="M358.4 896v-102.4h307.2V896h102.4v-102.4h204.8c30.72 0 51.2-20.48 51.2-51.2v-819.2c0-30.72-20.48-51.2-51.2-51.2H51.2c-30.72 0-51.2 20.48-51.2 51.2V742.4c0 30.72 20.48 51.2 51.2 51.2h204.8V896h102.4z m563.2-358.4H102.4v-563.2h819.2V537.6z m-225.28-92.16v-56.32H563.2v-87.04h117.76v-56.32H563.2v-97.28h143.36v-56.32H317.44v56.32h56.32v199.68h61.44v-199.68h71.68V389.12H332.8V445.44h363.52z"  horiz-adv-x="1024" />

    
    <glyph glyph-name="-close-black" unicode="&#58902;" d="M512 810.666667C276.48 810.666667 85.333333 619.52 85.333333 384S276.48-42.66666699999996 512-42.66666699999996 938.666667 148.48000000000002 938.666667 384 747.52 810.666667 512 810.666667z m136.533333-531.342223c11.377778-11.377778 11.377778-29.582222 0-39.822222-5.688889-5.688889-12.515556-7.964444-20.48-7.964444s-14.791111 2.275556-20.48 7.964444L512 336.21333300000003l-96.711111-96.711111c-5.688889-5.688889-12.515556-7.964444-20.48-7.964444s-14.791111 2.275556-20.48 7.964444c-11.377778 11.377778-11.377778 29.582222 0 39.822222l96.711111 96.711112-104.675556 104.675555c-11.377778 11.377778-11.377778 29.582222 0 39.822222 11.377778 11.377778 29.582222 11.377778 39.822223 0l104.675555-104.675555 104.675556 104.675555c11.377778 11.377778 29.582222 11.377778 39.822222 0 11.377778-11.377778 11.377778-29.582222 0-39.822222l-104.675556-104.675555 97.848889-96.711112z"  horiz-adv-x="1024" />

    
    <glyph glyph-name="-setting" unicode="&#58913;" d="M364.930867 384.261683C364.930867 425.971046 379.015526 460.636928 407.723571 489.34615 436.432845 518.055424 471.099904 532.140083 512.809267 532.140083 554.517504 532.140083 589.18569 518.055424 617.894963 489.34615 646.605363 460.636928 660.687667 425.971046 660.687667 384.261683 660.687667 342.55109100000004 646.604186 307.341824 617.894963 278.633728 589.18569 249.92568300000005 554.517504 235.84214999999995 512.809267 235.84214999999995 471.099904 235.84214999999995 436.296704 249.79066899999998 407.723571 278.633728 378.879386 307.74906899999996 364.930867 343.09335 364.930867 384.261683L364.930867 384.261683ZM155.85449 287.842765C164.521267 256.967987 177.522586 226.63198699999998 193.23049 198.46614999999997L95.72823 78.75358700000004 206.229504-31.747634999999946 325.929267 65.75462400000004C354.097408 50.04549099999997 384.973363 37.045349999999985 415.84809 27.836365L432.098304-124.91535399999998 591.351245-124.91535399999998 607.601408 27.836365C638.477363 37.045349999999985 667.728845 50.04549099999997 697.519104 65.75462400000004L816.689408-31.747634999999946 928.275149 78.75358700000004 830.231808 198.46614999999997C845.39863 226.63198699999998 858.939904 256.96681 868.146586 287.842765L1020.901786 304.635187 1020.901786 463.888128 868.146586 480.138291C858.939904 511.014246 845.39863 539.723469 830.231808 569.514906L928.275149 689.226291 816.689408 800.812083 697.519104 702.768691C667.186586 717.936691 638.477363 731.477965 607.601408 740.685824L591.352371 893.439846 432.09943 893.439846 415.849267 740.685824C383.889971 731.477965 354.098586 717.935565 325.930445 702.768691L206.23063 800.812083 95.729408 689.226291 193.231667 569.514906C178.063667 539.722291 165.063526 511.014246 155.855667 480.138291L2.559386 463.888128 2.559386 304.635187 155.85449 287.842765 155.85449 287.842765Z"  horiz-adv-x="1024" />

    
    <glyph glyph-name="-user" unicode="&#58968;" d="M628.882286 738.889143a160.670476 160.670476 0 0 0 49.200762-115.907048v-57.051428c0-43.78819-17.456762-84.894476-49.249524-115.907048a169.106286 169.106286 0 0 0-118.832762-47.932952c-44.860952 0-87.088762 16.969143-118.881524 47.932952a160.670476 160.670476 0 0 0-49.152 115.907048V622.933333c0 43.78819 17.408 84.943238 49.152 115.907048a169.642667 169.642667 0 0 0 118.881524 47.932952c44.860952 0 87.088762-16.969143 118.881524-47.932952zM510.000762 868.059429c-138.873905 0-251.367619-109.714286-251.367619-245.077334v-57.051428c0-135.363048 112.493714-245.028571 251.367619-245.028572 138.873905 0 251.367619 109.665524 251.367619 245.028572V622.933333c0 135.41181-112.493714 245.077333-251.367619 245.077334z m345.088-720.457143c20.72381-20.23619 32.134095-47.006476 32.134095-75.239619v-88.502857a16.091429 16.091429 0 0 0-16.091428-15.652572H148.870095a16.091429 16.091429 0 0 0-16.091428 15.652572V72.411429c0 28.233143 11.410286 55.003429 32.182857 75.239619a110.055619 110.055619 0 0 0 77.141333 31.305142h535.79581c28.964571 0 56.466286-11.117714 77.190095-31.305142z m-77.190095 112.542476H242.102857c-106.008381 0-192.707048-84.553143-192.707047-187.879619v-88.502857c0-53.345524 44.763429-97.03619 99.474285-97.036191h722.261334c54.710857 0 99.474286 43.690667 99.474285 97.036191v88.502857c0 103.424-86.698667 187.879619-192.707047 187.879619z"  horiz-adv-x="1024" />

    
    <glyph glyph-name="-call" unicode="&#58882;" d="M605.323 812.79a40.17 40.17 0 0 1-6.598 0.82c-19.754 0.756-37.037-12.75-41.018-32.153-2.194-10.526-0.15-21.287 5.788-30.3 5.918-9.005 14.986-15.157 25.523-17.306 84.826-17.509 157.859-67.094 205.625-139.617 47.745-72.554 64.392-159.22 46.937-244.045-2.194-10.56-0.15-21.299 5.788-30.291 5.918-9.004 14.986-15.145 25.523-17.328a45.93 45.93 0 0 1 6.62-0.808c8.452-0.32 16.624 1.98 23.693 6.62 9.003 5.928 15.155 15.006 17.326 25.533 45.084 218.918-96.298 433.76-315.207 478.876z m69.395-605.464c2.383-1.554 55.577-35.708 96.448-77.684 15.389-15.879 41.167-42.444 40.485-73.267-0.574-21.052-12.452-42.168-36.335-64.454-5.939-5.832-59.133-55.515-144.234-55.515-23.31 0-47.256 3.703-71.181 10.985-25.14 7.62-50.705 19.392-75.907 34.93-99.513 58.771-176.314 134.444-249.24 245.44C109.4 418.53 105.802 581.9110000000001 106.377 612.702c0.213 142.106 118.565 198.004 132.06 203.922 18.561 8.61 34.782 12.75 49.724 12.75 7.152 0 14.007-0.968 20.35-2.906 13.048-3.958 31.163-14.218 43.338-40.592 16.604-35.782 32.314-87.082 43.041-140.787 11.283-55.738-19.967-71.383-50.192-86.507l-1.193-0.521s-53.471-22.31-62.879-26.183c-9.238-3.852-14.05-14.261-10.9-23.776 21.564-65.327 54.494-133.071 95.193-195.907 40.04-61.827 87.656-118.884 137.679-165.075 3.575-3.257 8.173-5.087 13.028-5.087l1.64 0.085c5.257 0.425 10.217 3.086 13.516 7.321 8.13 10.451 20.604 25.512 33.76 38.039 24.946 23.723 47.509 35.239 68.967 35.239 5.875 0 11.708-0.862 17.327-2.576 5.383-1.651 14.09-6.334 23.882-12.815zM505.449 482.312c-10.558 2.193-19.627 8.323-25.543 17.316-5.96 9.004-8.004 19.776-5.833 30.333 4.045 19.381 21.286 32.898 41.018 32.11 2.194-0.064 4.408-0.33 6.62-0.787 93.553-19.286 153.986-111.136 134.72-204.732-2.15-10.493-8.28-19.55-17.284-25.521-7.088-4.63-15.304-6.919-23.691-6.62-2.172 0.115-4.386 0.362-6.599 0.83-10.58 2.139-19.668 8.313-25.586 17.327-5.917 8.972-7.961 19.71-5.79 30.268 4.981 24.224 0.257 48.959-13.41 69.67-13.623 20.67-34.42 34.824-58.622 39.806z m41.891 126.27c-21.755 4.512-35.804 25.852-31.334 47.596 4.002 19.423 21.244 32.951 40.998 32.184a40.73 40.73 0 0 0 6.619-0.819c75.714-15.613 140.852-59.845 183.51-124.608 42.593-64.721 57.47-142.064 41.848-217.78-2.172-10.558-8.324-19.647-17.328-25.533-7.087-4.672-15.24-6.96-23.67-6.63a40.822 40.822 0 0 0-6.64 0.83c-21.713 4.459-35.782 25.81-31.313 47.596 11.261 54.63 0.533 110.485-30.248 157.241-30.779 46.732-77.779 78.672-132.442 89.923z"  horiz-adv-x="1024" />

    
    <glyph glyph-name="-location-empty" unicode="&#58967;" d="M502.307499 3.345066999999972A21037.056 21037.056 0 0 1 743.561899 266.581333a334.984533 334.984533 0 0 1 74.001066 210.466134c0 179.746133-140.424533 325.8368-312.9344 325.8368-172.6464 0-312.9344-145.954133-312.9344-325.8368a335.872 335.872 0 0 1 75.093334-211.831467c67.447467-87.2448 169.847467-194.7648 235.52-261.802667zM504.765099-128s-196.676267 191.351467-307.473067 334.711467A428.032 428.032 0 0 0 102.401365 477.115733C102.401365 708.5397330000001 282.625365 896 504.765099 896c222.208 0 402.2272-187.5968 402.2272-418.884267 0-103.082667-35.84-197.563733-95.232-270.609066C704.172032 85.46986700000002 504.765099-128 504.765099-128z m0 530.432c50.3808 0 91.272533 40.823467 91.272533 91.272533a91.477333 91.477333 0 0 1-91.272533 91.5456c-50.449067 0-91.477333-41.096533-91.477334-91.477333a91.477333 91.477333 0 0 1 91.477334-91.3408z m0-91.5456a182.954667 182.954667 0 0 0 0 365.704533 182.818133 182.818133 0 0 0 0-365.704533z"  horiz-adv-x="1024" />

    
    <glyph glyph-name="-download" unicode="&#59148;" d="M42.666667 277.33333300000004a277.162667 277.162667 0 0 0 130.730666 235.477334 341.376 341.376 0 0 0 677.205334 0 277.333333 277.333333 0 0 0-125.269334-512L298.666667 0c-143.189333 11.690667-256 131.328-256 277.333333z m676.181333-191.445333a192 192 0 0 1 86.613333 354.517333l-34.432 21.461334-5.12 40.192a256.042667 256.042667 0 0 1-507.861333 0l-5.12-40.192-34.346667-21.461334a192 192 0 0 1 86.570667-354.517333l7.381333-0.554667h398.933334l7.381333 0.554667zM554.666667 384h128l-170.666667-213.333333-170.666667 213.333333h128V554.666667h85.333334v-170.666667z"  horiz-adv-x="1024" />

    
    <glyph glyph-name="-info" unicode="&#58949;" d="M512 896C229.23 896 0 666.77 0 384s229.23-512 512-512 512 229.23 512 512S794.77 896 512 896zM512-32c-229.75 0-416 186.25-416 416S282.25 800 512 800s416-186.25 416-416S741.75-32 512-32zM448 640L576 640 576 512 448 512zM640 128L384 128 384 192 448 192 448 384 384 384 384 448 576 448 576 192 640 192z"  horiz-adv-x="1024" />

    
    <glyph glyph-name="-edit-line" unicode="&#59080;" d="M273.664 213.33333300000004L706.389333 646.058667l-60.330666 60.330666L213.333333 273.664V213.33333300000004h60.330667z m35.370667-85.333333H128v181.034667L615.893333 796.928a42.666667 42.666667 0 0 0 60.330667 0l120.704-120.704a42.666667 42.666667 0 0 0 0-60.330667L309.034667 128zM128 42.66666699999996h768v-85.333334H128v85.333334z"  horiz-adv-x="1024" />

    
    <glyph glyph-name="-anquan" unicode="&#59028;" d="M870.26344 705.591179c-10.737563 9.749048-24.877622 15.083548-39.499659 15.083548-1.333369 0-2.666739 0-3.999085-0.092098-0.806366-0.091074-10.117438-0.645707-24.668867-0.645707-24.117305 0-71.201716 1.655711-115.803585 12.230568-57.590707 13.703107-124.056558 77.159411-143.392971 89.666272-9.748025 6.343481-20.967565 9.470708-32.209618 9.470708-11.196004 0-22.415545-3.127227-32.141057-9.379634-2.344397-1.563613-71.938498-73.569649-140.011964-89.757346-44.578332-10.574857-92.560185-12.230568-116.654977-12.230568-14.553475 0-23.839988 0.554633-24.758918 0.645707-1.264808 0.092098-2.529615 0.092098-3.816936 0.092098-14.645573 0-28.830658-5.333477-39.613246-15.083548-11.701518-10.574857-18.368365-25.380066-18.368365-40.922056l0-140.058013c0-517.749452 350.285225-584.42201 365.135459-587.085679 3.40352-0.555656 6.828529-0.829902 10.254562-0.829902 3.402497 0 6.873555 0.274246 10.230002 0.829902 14.87377 2.664692 367.732613 69.337251 367.732613 587.085679L888.67683 664.669123C888.67683 680.2111130000001 881.98747 695.015299 870.26344 705.591179zM740.77926 505.299256l-242.8482-234.965664c-1.517565-2.480497-3.379984-4.967133-5.633306-7.081286-7.127335-6.897091-16.553018-10.20749-25.888649-10.023294-9.332562-0.184195-18.737779 3.126204-25.863067 10.023294-2.252299 2.114153-4.137231 4.600789-5.654796 7.081286l-129.780938 125.621194c-13.818741 13.33574-13.818741 34.944918 0 48.372756 13.816694 13.331646 36.231215 13.331646 50.049956 0l111.249868-107.689782 224.342712 217.030159c13.818741 13.33574 36.209726 13.33574 50.027443 0C754.596978 540.3372959999999 754.596978 518.631926 740.77926 505.299256z"  horiz-adv-x="1024" />

    
    <glyph glyph-name="-qrcode" unicode="&#58880;" d="M62.996776 411.938306l423.162696 0L486.159472 835.099978 62.996776 835.099978 62.996776 411.938306zM168.788218 729.30956l211.580836 0 0-211.580836L168.788218 517.728724 168.788218 729.30956zM539.055193 835.099978l0-423.162696 423.162696 0L962.217888 835.099978 539.055193 835.099978zM856.426447 517.728724L644.845611 517.728724 644.845611 729.30956l211.580836 0L856.426447 517.728724zM221.682915 570.623421l105.790418 0L327.473333 676.414863 221.682915 676.414863 221.682915 570.623421zM62.996776-64.12011099999995l423.162696 0L486.159472 359.04258500000003 62.996776 359.04258500000003 62.996776-64.12011099999995zM168.788218 253.252167l211.580836 0 0-211.580836L168.788218 41.67133100000001 168.788218 253.252167zM803.531749 676.414863L697.740308 676.414863l0-105.790418 105.790418 0L803.530726 676.414863zM539.055193-64.12011099999995l105.790418 0L644.845611 41.67030799999998 539.055193 41.67030799999998 539.055193-64.12011099999995zM644.845611 253.252167l0-211.580836 105.790418 0L750.636029 253.252167 644.845611 253.252167zM856.426447 41.67030799999998L750.636029 41.67030799999998 750.636029-64.12011099999995l211.580836 0L962.216865 147.46174900000005 856.426447 147.46174900000005 856.426447 41.67030799999998zM856.426447 253.252167l105.790418 0L962.216865 359.04258500000003 856.426447 359.04258500000003 856.426447 253.252167zM539.055193 359.04258500000003l0-105.790418 105.790418 0L644.845611 359.04258500000003 539.055193 359.04258500000003zM221.682915 94.56602799999996l105.790418 0L327.473333 200.356446 221.682915 200.356446 221.682915 94.56602799999996z"  horiz-adv-x="1024" />

    
    <glyph glyph-name="-pointer" unicode="&#58980;" d="M398.647-58.198999999999955L179.278 215.81399999999996s-11.085 102.239 87.737 59.17c57.017-25.586 77.367-79.298 77.367-79.298l2.043 417.39s58.947 87.901 110.234 0l0.934-264.254s63.75 86.742 138.747-6.064c0 0 56.248 94.518 135.27-4.577 0 0 56.03 109.298 112.278-9.485v-331.75s-3.256-25.862-48.862-55.145H398.647z m0 0M400.576 825C278.208 825 178.95 725.741 178.95 603.374c0-82.111 45.164-152.972 111.502-191.245v68.489c-34.299 30.386-56.357 74.228-56.357 123.636 0 91.43 74.166 165.602 165.597 165.602 91.433 0 165.602-74.171 165.602-165.602 0-48.415-21.175-91.595-54.265-121.871v-70.086c66.121 38.379 111.174 109.13 111.174 191.077C622.203 725.741 522.944 825 400.576 825z m0 0"  horiz-adv-x="1024" />

    
    <glyph glyph-name="-phone" unicode="&#58926;" d="M1013.8624 12.288000000000011c-29.2864-80.657067-101.5808-133.495467-181.179733-138.990933l0-0.989867c-497.834667 0-832.4096 332.8-832.4096 834.525867L1.706667 706.833067c6.4512 78.7456 58.6752 150.016 138.205867 179.029333C247.9104 925.252267 289.109333 840.874667 328.430933 732.603733c39.3216-108.270933 61.8496-199.441067-46.148267-238.865067-12.3904-4.5056-24.951467-7.406933-37.5808-9.4208 44.1344-181.930667 187.0848-323.7888 368.571733-367.342933 2.048 12.731733 4.983467 25.463467 9.489067 37.9904 39.287467 108.270933 130.2528 85.674667 238.250667 46.250667S1053.149867 120.55893300000002 1013.8624 12.288000000000011z"  horiz-adv-x="1024" />

    
    <glyph glyph-name="-pay" unicode="&#58959;" d="M73.8048 750.08512h466.97472l-18.0992 7.49568 260.13696-260.14208c23.36256-23.36256 59.5712 12.83584 36.1984 36.20352L562.94912 789.7088c-10.70592 10.70592-21.71904 11.5712-35.79904 11.5712H73.8048c-33.01888 0.00512-33.01888-51.19488 0-51.19488zM305.18272 608.8550399999999c24.36608-24.56576 48.18944-49.67936 71.82848-74.94656A3315.08224 3315.08224 0 0 0 445.9008 457.88672c18.37568-20.90496 35.9168-43.07968 41.77408-70.84032 4.56704-21.64224-14.88896-42.79808-32.37376-52.11136-33.67424-17.93536-75.55072 26.4704-96.7168 46.45376-95.83104 90.51648-190.79168 181.9648-285.86496 273.26976-23.808 22.8608-60.0576-13.30176-36.20352-36.20352 44.48256-42.71616 89.0112-85.39136 133.56032-128.04096 35.08736-33.5872 70.1952-67.15392 105.36448-100.65408 31.5904-30.09536 62.34624-63.11936 98.73408-87.424 35.47648-23.70048 83.21024-30.75072 118.912-4.00896 27.47392 20.5824 46.57664 50.88768 45.97248 85.95968-1.09056 63.71328-62.30528 116.5824-101.66272 159.68256-31.3344 34.30912-63.29344 68.11136-96.01024 101.09952-23.27552 23.45472-59.4688-12.75392-36.20352-36.21376zM444.8256 487.81312H892.16512c17.3824 0 17.48992-13.07648 17.48992-26.48064v-416.60928c0-12.3904 5.66784-43.53024-12.77952-45.184-9.05216-0.80896-18.54464 0-27.61728 0H179.66592c-12.47232 0-20.5568 4.992-20.5568 18.59072V427.56096c0 13.04064-7.6288 58.4192 12.78464 60.25216 32.6144 2.92352 32.896 54.14912 0 51.2-76.44672-6.85056-63.98464-85.18144-63.98464-140.14464v-386.47296c0-67.2512 66.67264-64.05632 113.50016-64.05632h674.70848c37.02272 0 64.73728 30.37184 64.73728 66.60096V417.41824c0 49.65376 5.90848 121.59488-65.84832 121.59488H444.83072c-33.024 0-33.024-51.2-0.00512-51.2zM148.43904 108.26239999999996H922.46016c33.01376 0 33.01376 51.2 0 51.2H148.43392c-33.01376 0-33.01376-51.2 0.00512-51.2z"  horiz-adv-x="1024" />

    
    <glyph glyph-name="-money" unicode="&#58945;" d="M512.483467 71.05319599999996c27.883666 0 50.394238 22.577306 50.394238 50.399294l0 100.655009 101.466938 0c28.087912 0 50.665218 22.577306 50.665218 50.532762 0 27.816932-22.577306 50.527706-50.665218 50.527706L562.877705 323.167966l0 50.532762 101.466938 0c28.087912 0 50.665218 22.510572 50.665218 50.466028 0 27.883666-22.577306 50.460972-50.665218 50.460972l-76.269819 0 69.681359 69.819882c19.691569 19.686513 19.691569 51.671283 0 71.495309-19.686513 19.686513-51.738017 19.686513-71.429586-0.07179l-66.855277-66.922011-66.928078 66.922011c-19.686513 19.758303-51.671283 19.758303-71.429586 0.07179-19.753247-19.824026-19.753247-51.808796 0-71.495309l69.748093-69.819882-89.572118 0c-27.817943 0-50.527706-22.577306-50.527706-50.460972 0-27.955455 22.709763-50.466028 50.527706-50.466028l100.59333 0 0-50.532762-100.59333 0c-27.817943 0-50.527706-22.711785-50.527706-50.527706 0-27.955455 22.709763-50.532762 50.527706-50.532762l100.59333 0 0-100.655009C461.950706 93.63050299999998 484.594746 71.05319599999996 512.483467 71.05319599999996L512.483467 71.05319599999996zM512.483467 71.05319599999996M955.837496 601.291785c-1.814961 4.97269-4.101104 9.540932-7.054587 13.642036-0.404448 0.670373-0.809907 1.409502-1.075832 2.081897l-0.537916-0.201213c-8.802814 10.883699-22.305315 17.805829-37.29113 17.805829-26.879623 0-48.717801-21.634942-48.717801-48.44682 0-12.366002 4.700699-23.655161 12.36398-32.185983 26.879623-54.161673 41.996884-115.107963 41.996884-179.615419 0-223.223017-180.958187-404.115481-404.047736-404.115481-223.088538 0-403.975946 180.82573-403.975946 404.115481 0 223.088538 180.887408 403.981002 403.975946 403.981002 87.219241 0 167.922823-27.61673 233.907526-74.587315 9.073794-12.099066 23.653138-19.89076 39.915998-19.89076 27.549996 0 49.855311 22.378116 49.855311 49.788577 0 14.046484-5.91101 26.612688-15.11726 35.681426L820.034933 769.41481c-0.265925 0.204246-0.671384 0.471182-0.805863 0.670373-2.081897 1.954496-4.300295 3.629922-6.853374 5.244681C727.84199 840.576449 621.674354 879.482338 506.499657 879.482338c-277.045965 0-501.546027-224.566796-501.546027-501.612761 0-276.980242 224.565785-501.546027 501.546027-501.546027s501.546027 224.565785 501.546027 501.546027C1008.180163 458.100966 989.298501 534.0310489999999 955.837496 601.291785L955.837496 601.291785zM955.837496 601.291785"  horiz-adv-x="1024" />

    
    <glyph glyph-name="-down" unicode="&#58889;" d="M500.408996 351.29954999999995c3.684558-3.684558 8.674063-5.757121 13.893853-5.757121 5.21979 0 10.209295 2.072564 13.893853 5.757121L717.567616 540.593703c7.676162 7.676162 7.676162 20.111544 0 27.787706-7.676162 7.676162-20.111544 7.676162-27.787706 0L514.302849 392.981109 333.682759 573.601199c-7.676162 7.676162-20.111544 7.676162-27.787707 0-7.676162-7.676162-7.676162-20.111544 0-27.787706l194.513944-194.513943z m189.370914 59.874063L514.302849 235.696552 333.682759 416.393403c-7.676162 7.676162-20.111544 7.676162-27.787707 0-7.676162-7.676162-7.676162-20.111544 0-27.787706l194.513944-194.513943c3.684558-3.684558 8.674063-5.757121 13.893853-5.757121 5.21979 0 10.209295 2.072564 13.893853 5.757121l189.370914 189.370915c4.989505 4.989505 6.908546 12.205097 5.066267 18.96012-1.842279 6.755022-7.138831 12.051574-13.893853 13.893853-6.755022 1.765517-13.970615-0.153523-18.96012-5.143029z m0 0"  horiz-adv-x="1024" />

    
    <glyph glyph-name="-up" unicode="&#59278;" d="M523.591004 416.70045c-3.684558 3.684558-8.674063 5.757121-13.893853 5.757121-5.21979001 0-10.209295-2.07256399-13.893853-5.757121L306.432384 227.406297c-7.676162-7.676162-7.676162-20.111544 0-27.78770599 7.676162-7.676162 20.111544-7.676162 27.787706-1e-8L509.697151 375.01889100000005 690.317241 194.39880100000005c7.676162-7.676162 20.111544-7.676162 27.787707 0 7.676162 7.676162 7.676162 20.111544 0 27.787706l-194.513944 194.513943z m-189.370914-59.874063L509.697151 532.303448 690.317241 351.60659699999997c7.676162-7.676162 20.111544-7.676162 27.787707 0 7.676162 7.676162 7.676162 20.111544 0 27.787706l-194.513944 194.513943c-3.684558 3.684558-8.674063 5.757121-13.89385299 5.757121-5.21979001 0-10.209295-2.07256399-13.89385301-5.757121l-189.370914-189.370915c-4.989505-4.989505-6.908546-12.205097-5.066267-18.96012 1.842279-6.755022 7.138831-12.051574 13.893853-13.893853 6.755022-1.765517 13.970615 0.153523 18.96012 5.143029z m0 0"  horiz-adv-x="1024" />

    
    <glyph glyph-name="-close-circle" unicode="&#58888;" d="M512-128C229.701818-128 0 101.701818 0 384S229.701818 896 512 896c282.321455 0 512-229.701818 512-512S794.344727-128 512-128zM512 851.479273C254.231273 851.479273 44.544 641.792 44.544 384c0-257.768727 209.710545-467.479273 467.479273-467.479273 257.792 0 467.479273 209.733818 467.479273 467.479273C979.502545 641.792 769.792 851.479273 512 851.479273zM666.693818 203.822545c-5.701818 0-11.403636 2.164364-15.755636 6.493091L342.690909 518.609455c-8.704 8.704-8.704 22.784 0 31.488 8.704 8.704 22.784 8.704 31.488 0L682.426182 241.80363599999998c8.704-8.680727 8.704-22.784 0-31.488C678.097455 205.98690899999997 672.418909 203.822545 666.693818 203.822545zM354.048 203.79927299999997c-5.701818 0-11.380364 2.187636-15.732364 6.493091-8.704 8.704-8.704 22.784 0 31.488L654.196364 557.6610909999999c8.704 8.704 22.784 8.704 31.488 0 8.680727-8.704 8.680727-22.784 0-31.488L369.803636 210.29236400000002C365.451636 205.98690899999997 359.749818 203.79927299999997 354.048 203.79927299999997z"  horiz-adv-x="1024" />

    
    <glyph glyph-name="tianjiatupian" unicode="&#59277;" d="M804.488 33.704h-161.6L302.832 353.256 116.488 196.832V619.76h415v112H108.488c-57.344 0-104-46.656-104-104v-602.056c0-57.344 46.656-104 104-104h704c57.344 0 104 46.656 104 104V352.968h-112v-319.264zM900.048 726.832V846.296h-112v-119.464H668.576v-112h119.472V495.36h112V614.832h119.464v112zM599.832 398.088m-96.336 0a96.336 96.336 0 1 1 192.672 0 96.336 96.336 0 1 1-192.672 0Z"  horiz-adv-x="1024" />

    
    <glyph glyph-name="suo" unicode="&#58906;" d="M844.118432 466.651612H352.84971V632.966826c0 88.019054 71.64323 159.662285 159.662285 159.662284s159.15029-71.64323 159.15029-159.662284v-38.892583h99.277933v42.985539C770.940218 779.835248 654.775466 896 512 896S253.059782 779.835248 253.059782 637.059782v-170.40817h-73.178214c-35.309621 0-63.967313-28.657692-63.967313-63.967313v-466.705986c0-35.309621 28.657692-63.967313 63.967313-63.967313H843.606438c35.309621 0 63.967313 28.657692 63.967313 63.967313V403.195294c0.511995 34.798626-28.145698 63.456318-63.455319 63.456318z m-296.296817-309.09068v-101.835906c0-4.605951-3.581962-8.187912-8.187912-8.187912h-55.267406c-4.605951 0-8.699907 4.093956-8.699907 8.187912V157.560932c-25.586725 13.305857-43.497533 39.404577-43.497532 70.619242 0 44.009527 35.821615 79.320148 79.319147 79.320148 44.009527 0 79.319148-35.821615 79.319148-79.319148 1.023989-31.215665-16.886819-57.314384-42.985538-70.619242zM671.662285 592.027265a49.639467 49.639467 0 1 1 99.277933 0 49.639467 49.639467 0 1 1-99.277933 0z"  horiz-adv-x="1024" />

    
    <glyph glyph-name="-direction-up" unicode="&#59281;" d="M877.129143 138.60571400000003a68.973714 68.973714 0 0 1 97.57257101 3.291429 78.994286 78.994286 0 0 1-1e-8 107.958857L571.245714 681.545143a68.973714 68.973714 0 0 1-68.169143 19.602286 68.900571 68.900571 0 0 1-68.169142-19.602286L31.670857 249.856a78.994286 78.994286 0 0 1 0-107.958857 68.973714 68.973714 0 0 1 100.790857 0L503.222857 538.624 873.837714 141.89714300000003a69.046857 69.046857 0 0 1 1.609143-1.682286z"  horiz-adv-x="1024" />

    
    <glyph glyph-name="dui" unicode="&#59082;" d="M1024 742.4v-716.8a51.2 51.2 0 0 0-51.2-51.2h-409.6V-128h-102.4v102.4H51.2A51.2 51.2 0 0 0 0 25.6v716.8h1024zM815.217778 616.675556H651.605333v-91.136l58.368-0.341334v-373.873778h105.244445v465.351112z m-465.351111 0H186.026667v-91.136l58.368-0.341334v-373.873778h105.244444v465.351112z m226.417777-279.210667h-93.184v-93.070222h93.070223V337.351111z m0 186.140444h-93.184v-93.070222h93.070223v93.070222zM1024 896v-102.4H0V896h1024z"  horiz-adv-x="1024" />

    
    <glyph glyph-name="bangding" unicode="&#59083;" d="M702.621538 206.926769a33.398154 33.398154 0 0 0 45.449847 0c11.027692-10.397538 12.366769-26.466462 4.174769-38.281846l-4.174769-4.726154-13.154462-12.603077c-22.843077-21.661538-40.487385-55.296-40.487385-86.252307s12.603077-59.943385 35.446154-81.683693c22.921846-21.661538 53.563077-33.634462 86.173539-33.634461 28.593231 0 55.532308 9.137231 77.193846 25.993846l8.900923 7.640615 18.116923 17.250462a33.398154 33.398154 0 0 0 45.528615 0 29.380923 29.380923 0 0 0 4.096-38.281846l-4.096-4.726154-18.195692-17.329231a185.265231 185.265231 0 0 0-61.518769-38.596923 195.268923 195.268923 0 0 0-70.025846-12.839385c-24.182154 0-47.734154 4.332308-70.025846 12.839385a185.265231 185.265231 0 0 0-61.44 38.596923 174.237538 174.237538 0 0 0-40.802462 58.368 168.566154 168.566154 0 0 0 0 132.726154c7.798154 18.353231 22.055385 38.281846 36.785231 54.114461l8.900923 8.979693 13.233231 12.445538zM585.097846 867.485538c285.144615 0 510.188308-184.871385 510.188308-412.435692 0-8.034462-0.315077-15.911385-0.787692-23.788308a236.307692 236.307692 0 0 1-260.253539-8.743384l-13.469538-10.397539-178.333539-146.904615a236.307692 236.307692 0 0 1-82.707692-221.814154l-26.072616 2.284308c-42.850462 4.962462-85.779692 15.123692-128.630153 25.284923l-165.021539-85.307077 44.977231 142.178462C164.864 213.228308 74.830769 326.971077 74.830769 455.049846 74.830769 682.535385 314.919385 867.485538 585.019077 867.485538z m387.938462-658.668307a35.131077 35.131077 0 0 0-0.945231-51.436308L866.776615 61.046154a39.936 39.936 0 0 0-54.19323 0.866461 35.131077 35.131077 0 0 0 0.94523 51.436308l105.235693 96.334769a39.936 39.936 0 0 0 54.19323-0.866461z m-6.537846 174.867692c24.182154 0 47.655385-4.332308 69.947076-12.839385 23.158154-8.900923 43.795692-21.897846 61.597539-38.596923 17.644308-16.856615 31.350154-36.470154 40.723692-58.368a168.566154 168.566154 0 0 0 0-132.726153 172.898462 172.898462 0 0 0-30.641231-47.970462l-10.082461-10.397538-18.116923-17.171693a33.398154 33.398154 0 0 0-45.528616 0 29.223385 29.223385 0 0 0-4.096 38.281846l4.096 4.726154 18.195693 17.250462a111.694769 111.694769 0 0 1 0 163.288615 124.455385 124.455385 0 0 1-86.094769 33.634462 125.243077 125.243077 0 0 1-77.193847-25.993846l-8.979692-7.640616-18.116923-17.250461a33.398154 33.398154 0 0 0-45.449846 0 29.223385 29.223385 0 0 0-4.096 38.281846l4.096 4.726154 18.116923 17.32923c17.723077 16.699077 38.439385 29.696 61.597538 38.596923 22.291692 8.507077 45.843692 12.839385 70.025847 12.839385zM750.040615 639.921231c-44.977231 0-74.988308-28.435692-74.988307-56.871385s29.932308-56.950154 74.988307-56.950154c30.011077 0 60.022154 28.514462 60.022154 56.950154 0 28.356923-29.932308 56.871385-60.022154 56.871385z m-330.043077 0c-45.056 0-75.067077-28.435692-75.067076-56.871385s30.011077-56.950154 74.988307-56.950154c30.011077 0 60.022154 28.514462 60.022154 56.950154 0 28.356923-29.932308 56.871385-60.022154 56.871385z"  horiz-adv-x="1181" />

    
    <glyph glyph-name="bianji" unicode="&#59084;" d="M583.406933 356.9664l331.9808 334.779733L833.877333 773.12l-331.776-334.506667v-81.646933h81.237334zM996.829867 773.12c44.8512-44.8512 44.987733-117.623467 0.273066-162.6112L665.122133 275.797333c-21.572267-21.845333-51.063467-34.133333-81.7152-34.133333h-196.608V438.613333c0 30.446933 12.014933 59.5968 33.450667 81.237334L752.093867 854.357333a115.234133 115.234133 0 0 0 162.952533 0.6144l81.783467-81.783466zM928.221867 384h126.088533v-315.255467a189.098667 189.098667 0 0 0-189.098667-189.098666H234.7008a189.098667 189.098667 0 0 0-189.166933 189.098666V699.255467a189.098667 189.098667 0 0 0 189.098666 189.098666h374.647467v-126.020266H234.7008a63.0784 63.0784 0 0 1-63.0784-63.0784v-630.510934c0-34.816 28.2624-63.0784 63.0784-63.0784h630.510933c34.816 0 63.010133 28.2624 63.010134 63.0784V384z"  horiz-adv-x="1092" />

    
    <glyph glyph-name="bingjia" unicode="&#59085;" d="M739.555556 896a284.444444 284.444444 0 0 0 284.444444-284.444444v-455.111112a284.444444 284.444444 0 0 0-284.444444-284.444444H284.444444a284.444444 284.444444 0 0 0-284.444444 284.444444V611.555556a284.444444 284.444444 0 0 0 284.444444 284.444444h455.111112z m-151.04-227.555556l-91.932445-7.224888 9.728-38.456889H306.062222v-166.798223l-7.281778 38.968889c-2.844444 14.392889-6.144 30.151111-9.841777 47.217778l-7.964445 36.067556-49.493333-14.506667 5.233778-26.510222c4.437333-23.722667 9.671111-54.727111 15.530666-93.070222l2.616889-16.896 51.2 14.791111 0.284445-37.888c-22.869333-13.653333-44.259556-25.372444-64.113778-35.100445L227.555556 362.097778l16.156444-83.569778c18.375111 10.979556 37.205333 22.584889 56.547556 34.816-9.671111-58.823111-30.151111-106.268444-61.553778-142.279111 15.587556-11.548444 36.010667-31.004444 61.269333-58.481778 12.8 14.449778 28.899556 45.624889 48.355556 93.411556 17.863111 44.145778 27.534222 106.097778 28.899555 185.912889l0.170667 20.309333V557.056h404.935111V622.762667H599.04L588.515556 668.444444z m184.888888-145.92h-374.328888v-63.488h151.836444c-0.113778-10.183111-0.568889-20.081778-1.365333-29.752888l-1.422223-14.222223h-146.773333v-297.528889h69.063111V242.915556c14.449778-13.198222 29.525333-27.704889 45.112889-43.463112 29.525333 25.6 53.077333 54.784 70.712889 87.438223 18.261333-18.204444 35.384889-35.953778 51.313778-53.134223l15.530666-17.066666 39.594667 41.244444v-35.669333c-0.227556-11.889778-3.697778-20.650667-10.467555-26.282667-5.404444-4.551111-13.255111-7.281778-23.495112-8.192l-8.135111-0.341333-15.303111 0.284444c-23.552 0-43.064889 0.568889-58.481778 1.706667l4.437334-16.042667c3.868444-14.961778 8.362667-34.133333 13.368889-57.457777l31.118222-0.113778c29.013333 0.227556 51.825778 1.479111 68.437333 3.697778 22.186667 2.958222 39.025778 10.922667 50.460445 23.893333 9.784889 11.207111 15.36 25.827556 16.725333 43.918222l0.398222 9.329778V415.004444h-139.264l1.592889 21.845334 0.910222 22.186666h148.48V522.524444z m-237.226666-166.570666c-13.198222-41.016889-35.157333-73.614222-65.763556-97.735111V355.953778h65.706667z m156.444444 0v-78.791111c-27.818667 23.210667-55.466667 45.169778-82.944 65.991111l3.584 12.8h79.416889z"  horiz-adv-x="1024" />

    
    <glyph glyph-name="chidao" unicode="&#59086;" d="M739.555556 896a284.444444 284.444444 0 0 0 284.444444-284.444444v-455.111112a284.444444 284.444444 0 0 0-284.444444-284.444444H284.444444a284.444444 284.444444 0 0 0-284.444444 284.444444V611.555556a284.444444 284.444444 0 0 0 284.444444 284.444444h455.111112zM365.454222 478.663111H234.837333v-73.728h55.751111v-140.117333l-24.177777-22.072889c-7.566222-6.940444-14.563556-13.539556-21.048889-19.683556L227.555556 205.653333l33.507555-82.602666 68.096 74.808889c32.824889-36.295111 78.791111-55.751111 137.955556-58.311112l93.127111-1.706666c66.446222-0.910222 131.413333-1.365333 194.844444-1.365334 8.533333 26.055111 17.635556 51.882667 27.306667 77.596445l-12.174222-0.910222c-23.779556-1.365333-69.632-2.275556-137.557334-2.673778l-120.433777-0.341333c-58.368 0-104.561778 13.880889-138.524445 41.585777l-8.248889 7.224889V478.663111z m227.726222-63.658667l-48.014222-55.808a3178.552889 3178.552889 0 0 0 181.475556-128.967111l50.744889 65.308445a2739.427556 2739.427556 0 0 1-150.869334 99.271111l-33.336889 20.195555z m156.899556 230.001778H434.062222v-161.336889c0-83.740444-18.602667-148.309333-55.864889-193.706666 23.495111-18.602667 45.795556-37.774222 67.015111-57.457778a422.115556 422.115556 0 0 1 62.008889 171.349333l2.446223 21.219556h240.355555V645.006222zM671.857778 577.422222v-84.878222H512.227556V577.479111h159.687111zM305.720889 668.444444l-62.577778-37.376c26.851556-38.684444 51.029333-76.344889 72.590222-112.810666l69.233778 45.226666c-17.066667 23.836444-34.588444 47.331556-52.337778 70.485334L305.720889 668.444444z"  horiz-adv-x="1024" />

    
    <glyph glyph-name="bofang" unicode="&#59087;" d="M526.0288 879.8208a485.0688 485.0688 0 1 0 0-970.0864 485.0688 485.0688 0 0 0 0 970.0864zM467.456 558.1824a40.96 40.96 0 0 1-40.96-40.96v-244.8896a40.96 40.96 0 0 1 63.6928-34.0992l183.7056 122.4704a40.96 40.96 0 0 1 0 68.1472L490.1888 551.3216a40.96 40.96 0 0 1-22.7328 6.8608z"  horiz-adv-x="1024" />

    
    <glyph glyph-name="chehui" unicode="&#59088;" d="M110.956725 554.164706a66.439529 66.439529 0 0 0-60.717177 19.275294 72.161882 72.161882 0 0 0 0 99.930353L244.438136 875.52 246.365666 877.447529A66.499765 66.499765 0 0 0 340.332725 875.52a72.161882 72.161882 0 0 0 0-99.930353L253.292725 684.995765h350.147764c210.221176 0 382.072471-168.357647 389.421177-378.096941l0.240941-14.034824c0-216.244706-174.802824-392.131765-389.662118-392.131765H135.833901a77.824 77.824 0 0 0-69.993412 38.249412c-14.637176 24.696471-14.637176 34.876235 0 59.632941 14.576941 24.696471 41.441882 39.393882 69.993412 38.249412h496.579765c129.024 0.120471 233.592471 126.072471 233.773176 256 0 129.686588-104.809412 261.300706-233.773176 261.300706z"  horiz-adv-x="1024" />

    
    <glyph glyph-name="genjinshijian" unicode="&#59089;" d="M490.918733 895.99936c115.967928 0 222.463861-40.127975 306.495809-107.327933L876.646492 867.839378l77.119952-77.119952-79.231951-79.231951a490.879693 490.879693 0 1 0-767.16752 0L28.199022 790.719426 105.254974 867.839378l79.231951-79.231951A488.575695 488.575695 0 0 0 490.982733 895.99936z m0-872.703455a381.823761 381.823761 0 1 1 0.064 763.583523 381.823761 381.823761 0 0 1 0-763.583523z m54.591966 436.351728h163.647898l-272.76783-354.559779V350.527701H272.74287l272.767829 354.815778v-245.759846z"  horiz-adv-x="1024" />

    
    <glyph glyph-name="-plus" unicode="&#59090;" d="M512 896c60.586667 0 109.738667-49.152 109.738667-109.738667l-0.085334-292.522666h292.693334a109.738667 109.738667 0 0 0 0-219.477334l-292.693334 0.085334v-292.693334a109.738667 109.738667 0 0 0-219.306666 0l-0.085334 292.693334H109.738667a109.738667 109.738667 0 0 0 0 219.306666l292.522666 0.085334V786.261333C402.261333 846.848 451.413333 896 512 896z"  horiz-adv-x="1024" />

    
    <glyph glyph-name="jia" unicode="&#59091;" d="M739.555556 896a284.444444 284.444444 0 0 0 284.444444-284.444444v-455.111112a284.444444 284.444444 0 0 0-284.444444-284.444444H284.444444a284.444444 284.444444 0 0 0-284.444444 284.444444V611.555556a284.444444 284.444444 0 0 0 284.444444 284.444444h455.111112z m17.180444-476.273778H550.4V357.262222h15.075556c7.623111-47.957333 23.495111-90.453333 47.672888-127.658666-25.6-23.438222-58.026667-44.088889-97.28-61.895112 20.821333-18.602667 36.408889-35.157333 46.819556-49.664a368.469333 368.469333 0 0 1 93.696 59.392c22.129778-21.731556 48.128-40.96 78.051556-57.685333 17.863111 21.162667 33.109333 41.244444 45.738666 60.188445-30.72 12.856889-56.888889 28.444444-78.620444 46.876444 25.770667 36.010667 43.178667 77.937778 52.224 125.667556l2.958222 18.204444v49.038222z m-194.56 230.343111h-173.511111v-529.806222h69.176889v112.64h95.914666v65.820445H457.841778v37.944888H540.444444V402.432H457.955556v46.876444H562.062222V650.069333zM307.825778 668.444444C290.019556 576.284444 263.224889 492.088889 227.555556 415.857778l6.200888-29.809778c5.688889-27.989333 9.955556-50.801778 12.743112-68.380444 8.192 14.392889 16.099556 29.013333 23.836444 43.804444l11.320889 22.300444v-262.940444h69.12v435.768889c6.599111 20.878222 12.629333 41.984 18.204444 63.374222l8.021334 32.312889L307.882667 668.444444z m375.808-311.182222a203.093333 203.093333 0 0 0-28.16-76.913778 219.136 219.136 0 0 0-25.713778 62.919112l-3.015111 13.994666h56.888889z m68.608 288.312889h-172.885334v-65.820444h102.627556v-59.619556h-102.627556v-65.820444h172.885334V645.575111zM503.011556 584.248889v-69.176889h-45.169778V584.248889h45.169778z"  horiz-adv-x="1024" />

    
    <glyph glyph-name="keqingjia" unicode="&#59092;" d="M1297.092923 448.039385V-128H1167.36v192.039385H129.732923V-128H0V896h129.732923v-640h518.774154V704.039385h389.12c143.36 0 259.465846-114.688 259.465846-256zM389.12 319.960615c-107.441231 0-194.56 86.016-194.56 192.039385s87.118769 192.039385 194.56 192.039385S583.68 617.944615 583.68 511.921231 496.561231 319.960615 389.12 319.960615z"  horiz-adv-x="1339" />

    
    <glyph glyph-name="-chat" unicode="&#59093;" d="M962.176 896H169.792C76.032 896 0 817.792 0 721.28v-524.096c0-96.448 76.032-174.72 169.792-174.72h202.88l113.152-116.352c44.16-45.44 115.968-45.44 160.128 0l113.152 116.416h202.88c93.824 0 169.792 78.208 169.792 174.72V721.28C1131.904 817.792 1056 896 962.176 896z m56.448-698.816c0-32.192-25.28-58.24-56.64-58.24H712.32l-146.304-150.528-146.304 150.528H169.792a57.472 57.472 0 0 0-56.64 58.24v524.16c0 32.192 25.344 58.24 56.64 58.24H961.92c31.36 0 56.64-26.048 56.64-58.24v-524.16zM697.216 640H373.952C344.128 640 320 611.8399999999999 320 577.088c0-34.816 24.128-62.912 53.952-62.912h323.264c29.824 0 53.952 28.16 53.952 62.912 0 34.752-24.128 62.912-53.952 62.912z m0-377.28c29.824 0 53.952 28.16 53.952 62.912 0 34.816-24.128 62.976-53.952 62.976H373.952c-29.824 0-53.952-28.16-53.952-62.976 0-34.752 24.128-62.912 53.952-62.912h323.264z"  horiz-adv-x="1152" />

    
    <glyph glyph-name="genjinren" unicode="&#59094;" d="M514.329202 896c31.338455 0 56.856911-25.4545 56.856911-56.856911v-3.517582a455.047155 455.047155 0 0 0 394.416838-394.416838h3.517582a56.856911 56.856911 0 1 0 0-113.713822h-3.517582a455.047155 455.047155 0 0 0-394.416838-394.416838v-3.517582a56.856911 56.856911 0 1 0-113.713822 0v3.517582A455.047155 455.047155 0 0 0 63.055453 327.430891H59.537871a56.856911 56.856911 0 1 0 0 113.713822h3.517582A455.047155 455.047155 0 0 0 457.408335 835.625507V839.143089C457.472291 870.5455 482.990747 896 514.329202 896z m56.792955-175.239523v-52.18812a56.856911 56.856911 0 0 0-113.649866 0V720.760477a341.397289 341.397289 0 0 1-279.487852-279.615764h52.124164a56.856911 56.856911 0 0 0 0-113.649866H177.920483a341.397289 341.397289 0 0 1 279.615764-279.487852v52.124165a56.856911 56.856911 0 0 0 113.649866 0v-52.188121a341.397289 341.397289 0 0 1 279.487852 279.615764h-52.124165a56.856911 56.856911 0 0 0 0 113.649866h52.188121a341.397289 341.397289 0 0 1-279.615764 279.487852zM514.329202 512.263819a127.91206 127.91206 0 1 0 0-255.824121 127.91206 127.91206 0 0 0 0 255.824121z"  horiz-adv-x="1026" />

    
    <glyph glyph-name="jianhao" unicode="&#59095;" d="M3643.22135411 440.425781c0-187.2070315-151.875-338.81835912-339.0820315-338.81835913H818.24088561a339.0820315 339.0820315 0 0 0 0 677.90039063h2485.898437C3491.34635411 779.5078125 3643.22135411 627.6328125 3643.22135411 440.425781z"  horiz-adv-x="4096" />

    
    <glyph glyph-name="kechengdianming" unicode="&#59096;" d="M844.970846 338.728421c21.665684-38.534737 36.163368-81.758316 41.822316-127.622737h135.868632a52.601263 52.601263 0 0 0 0-105.148631H896.494215v-114.256842c0-65.859368-53.355789-119.215158-119.215158-119.215158H300.418425a119.215158 119.215158 0 0 0-119.215158 119.161263v114.256842H54.981794a52.601263 52.601263 0 1 0 0 105.202526h135.922526a350.854737 350.854737 0 0 0 192.943158 271.252211 224.417684 224.417684 0 1 0 309.948631 0 351.339789 351.339789 0 0 0 81.866106-56.050527L867.391057 573.170526a52.601263 52.601263 0 0 0 89.195789-55.727158l-111.669894-178.607157z m-64.512-127.622737a245.490526 245.490526 0 0 1-483.22021 0h483.22021zM286.405794 105.957053v-114.256842c0-7.760842 6.305684-14.012632 14.012631-14.012632h476.806737a14.012632 14.012632 0 0 1 14.012632 14.012632v114.256842H286.405794z m252.442947 419.462736a119.215158 119.215158 0 1 1 5.012211 238.376422 119.215158 119.215158 0 0 1-5.012211-238.376422z"  horiz-adv-x="1080" />

    
    <glyph glyph-name="-direction" unicode="&#59098;" d="M266.605714 18.870857a68.973714 68.973714 0 0 1 3.291429-97.572571 78.994286 78.994286 0 0 1 107.958857 0L809.545143 324.754286a68.973714 68.973714 0 0 1 19.602286 68.169143 68.900571 68.900571 0 0 1-19.602286 68.169142L377.856 864.329143a78.994286 78.994286 0 0 1-107.958857 0 68.973714 68.973714 0 0 1 0-100.790857L666.624 392.777143 269.897143 22.162285999999995a69.046857 69.046857 0 0 1-1.682286-1.609143z"  horiz-adv-x="1024" />

    
    <glyph glyph-name="jiakeshiicon" unicode="&#59099;" d="M839.338667 745.71581a487.619048 487.619048 0 0 0 0-689.590858c-190.415238-190.415238-499.175619-190.415238-689.590857 0-190.415238 190.415238-190.415238 499.175619 0 689.590858 190.415238 190.415238 499.175619 190.415238 689.590857 0zM770.438095 676.766476A390.095238 390.095238 0 1 1 218.697143 125.074286 390.095238 390.095238 0 0 1 770.438095 676.766476z m-54.369524-241.176381a48.761905 48.761905 0 0 0 14.287239-34.669714 48.761905 48.761905 0 0 0-48.956953-48.956952l-138.191238 0.341333 0.341333-138.191238a48.761905 48.761905 0 0 0-48.956952-48.956953 48.761905 48.761905 0 0 0-48.956952 48.956953l0.341333 138.191238-138.142476-0.341333a48.761905 48.761905 0 0 0-48.956953 48.956952A48.761905 48.761905 0 0 0 307.785143 449.828571l138.142476-0.341333-0.341333 138.142476a48.956952 48.956952 0 1 0 97.913904 0l-0.341333-138.142476 138.191238 0.341333a48.761905 48.761905 0 0 0 34.620953-14.287238z"  horiz-adv-x="1024" />

    
    <glyph glyph-name="kechenglishi" unicode="&#59100;" d="M596.399158 895.029895a157.049263 157.049263 0 0 0 157.049263-157.049263v-262.197895A298.576842 298.576842 0 1 0 565.086316-88.117895H184.751158a157.049263 157.049263 0 0 0-157.049263 157.103158V737.980632A157.049263 157.049263 0 0 0 184.751158 895.029895h411.648z m89.896421-519.922527a195.691789 195.691789 0 0 1-30.72-2.479157l-9.701053-1.832422-3.018105-0.700631a190.464 190.464 0 0 1-43.277474-354.789053l-1.994105 1.077895a190.356211 190.356211 0 1 1 100.082526 358.4l-1.077894 0.053895-10.293895 0.269473z m-266.186105-55.457684l1.077894 2.15579a298.576842 298.576842 0 0 0 37.295158 55.781052l3.988211 4.527158c13.473684 15.306105 28.456421 29.157053 44.678737 41.337263l2.425263 1.832421a246.837895 246.837895 0 0 0 21.018947 14.120421l4.634948 2.802527a296.421053 296.421053 0 0 0 96.094315 36.001684l3.610948 0.646737a279.336421 279.336421 0 0 0 10.347789 1.616842V737.980632c0 26.947368-21.827368 48.828632-48.828631 48.882526h-411.75579c-26.947368 0-48.828632-21.881263-48.828631-48.882526v-668.995369c0-27.001263 21.881263-48.882526 48.882526-48.882526h252.604631l-0.862315 1.293474a297.822316 297.822316 0 0 0-24.576 45.918315l-2.048 5.012211a294.426947 294.426947 0 0 0-21.234527 91.621052l-0.215579 3.341474 0.215579-3.287579a298.846316 298.846316 0 0 0-0.538947 31.205053l-0.161684-10.455579a303.642947 303.642947 0 0 0 1.724631 32.175158c3.772632 35.247158 13.689263 68.661895 28.564211 99.166316l1.886316 3.557052z m273.138526 5.658948c17.084632-9.539368 27.594105-27.594105 27.594105-47.157895l0.808421-46.18779h0.053895l46.18779 0.808421a54.110316 54.110316 0 1 0 1.886315-108.166736l-46.241684-0.808421-54.272-0.970106a53.894737 53.894737 0 0 0-54.810947 52.978527l-0.916211 54.272-0.808421 46.187789a54.110316 54.110316 0 0 0 80.518737 49.044211zM336.464842 429.271579a54.110316 54.110316 0 1 0 0-108.220632H238.807579a54.110316 54.110316 0 1 0 0 108.220632h97.657263zM490.981053 583.626105a54.110316 54.110316 0 1 0 0-108.220631H238.807579a54.110316 54.110316 0 1 0 0 108.220631H490.981053z m-51.523369 154.354527a54.110316 54.110316 0 1 0 0-108.166737H238.807579a54.110316 54.110316 0 1 0 0 108.166737h200.59621z"  horiz-adv-x="1024" />

    
    <glyph glyph-name="laoshi" unicode="&#59101;" d="M675.212843 104.305481c20.47872-19.902756 20.47872-52.348728 0-72.31548L512.023042-127.744016 400.989982-19.142804a50.172864 50.172864 0 0 0 0 72.251485 53.244672 53.244672 0 0 0 73.91538 0l36.989688-35.83776 89.338416 87.610524a53.75664 53.75664 0 0 0 73.915381-0.63996z m243.504781-232.113493h-93.306169a51.580776 51.580776 0 0 0-52.348728 51.1968c0 28.414224 23.35854 51.1968 52.348728 51.1968h22.206612c36.349728 0 63.100056 35.83776 49.468909 68.283733-63.164052 151.862509-212.210737 238.897069-385.12793 238.897069-173.493157 0-321.963877-87.03456-385.12793-238.897069-13.631148-33.021936 13.11918-68.283732 49.532905-68.283733H198.442641c29.054184 0 52.348728-22.782576 52.348728-51.1968 0-28.414224-23.294544-51.1968-52.348728-51.1968H105.264464c-65.467908 0-116.664708 58.620336-103.03356 121.144428C40.37252 165.165677 159.341085 292.00575 315.747309 350.114118a301.869133 301.869133 0 0 0-117.11268 238.897069c0 182.004625 160.949941 326.507593 350.954065 304.876945 137.591401-15.871008 251.440285-122.87232 272.494969-257.071933 17.5989-116.088744-30.71808-221.298169-113.784888-286.702081 156.406225-57.468408 275.310793-184.308481 313.452409-356.713706 13.631148-62.524092-37.565652-121.144428-103.03356-121.144428z m-198.003625 716.755203c0 113.208924-93.818136 204.787201-208.754953 204.787201-114.87282 0-208.754953-91.578276-208.754953-204.787201 0-113.208924 93.306168-204.787201 208.754953-204.787201 115.51278 0 208.754953 91.578276 208.754953 204.787201z"  horiz-adv-x="1024" />

    
    <glyph glyph-name="lishi" unicode="&#59102;" d="M504.087276 895.999535c282.763508 0 511.999767-229.236259 511.999768-511.999768s-229.236259-511.999767-511.999768-511.999767c-241.710436 0-444.322707 167.517015-498.036137 392.750367a65.163607 65.163607 0 0 0-5.771634 26.996351v0.698182a42.356344 42.356344 0 0 0-0.279272 1.396363 66.55997 66.55997 0 0 0 66.373788 64.046516 66.094515 66.094515 0 0 0 66.04797-70.283604l-1.163636 4.189089 2.420362-9.309087A383.999825 383.999825 0 1 1 256.931025 677.887634l55.156339-0.046546a63.999971 63.999971 0 0 0 0-127.999942H98.769642c-35.374529 0-63.999971 28.671987-63.999971 63.999971V616.26148 831.999564a63.999971 63.999971 0 0 0 127.999942 0l-0.093091-66.420334A510.13795 510.13795 0 0 0 504.087276 895.999535z m-21.317808-255.999884c35.374529 0 63.999971-28.671987 63.999971-63.999971v-154.11193h149.31775a63.999971 63.999971 0 0 0 0-127.999942h-213.317721c-35.374529 0-63.999971 28.671987-63.999971 63.999971v2.373817 215.738084c0 35.374529 28.625442 63.999971 63.999971 63.999971z"  horiz-adv-x="1024" />

    
    <glyph glyph-name="pinglun" unicode="&#59103;" d="M1042.310916 896a54.814085 54.814085 0 0 0 54.814086-54.814085v-767.999549a54.814085 54.814085 0 0 0-54.814086-54.87432H556.57379l-216.184343-137.938743a54.874321 54.874321 0 0 0-29.575512-8.372701 54.814085 54.814085 0 0 0-54.874321 54.814086V18.372281H54.814085a54.814085 54.814085 0 0 0-54.814085 54.814085V841.185915A54.814085 54.814085 0 0 0 54.814085 896h987.496831z m-54.87432-109.688406H109.628171V128.000452h201.185764a54.814085 54.814085 0 0 0 54.814085-54.814086v-46.501619L511.999699 119.206104a54.814085 54.814085 0 0 0 29.635747 8.432936h445.740914V786.311594z m-435.500921-255.999849a73.125604 73.125604 0 1 0 0-146.311444 73.125604 73.125604 0 0 0 0 146.311444z m216.063873-9.818348a73.125604 73.125604 0 1 0 73.125604-126.734984 73.125604 73.125604 0 0 0-73.125604 126.734984z m-511.999699 0a73.125604 73.125604 0 1 0 73.125604-126.734984A73.125604 73.125604 0 0 0 255.999849 520.493397z"  horiz-adv-x="1144" />

    
    </font>
</defs>
</svg>
